<mxfile host="Electron" modified="2023-10-19T06:25:14.740Z" agent="Mozilla/5.0 (Macintosh; Intel Mac OS X 10_15_7) AppleWebKit/537.36 (KHTML, like Gecko) draw.io/21.5.1 Chrome/112.0.5615.204 Electron/24.6.0 Safari/537.36" etag="-HZSRZBLo7q_2bTzdvkt" version="21.5.1" type="device" pages="4">
  <diagram id="Ksh-sCeIXC-5PDlkENbU" name="第 1 页">
    <mxGraphModel dx="4284" dy="659" grid="1" gridSize="10" guides="1" tooltips="1" connect="1" arrows="1" fold="1" page="1" pageScale="1" pageWidth="3300" pageHeight="4681" background="none" math="0" shadow="0">
      <root>
        <mxCell id="0" />
        <mxCell id="1" parent="0" />
        <mxCell id="akxBlBaWW-fTLJFMEqZJ-1" value="Container" style="html=1;strokeColor=#457B9D;fontColor=#1D3557;fillColor=#97D077;" parent="1" vertex="1">
          <mxGeometry x="510" y="220" width="80" height="20" as="geometry" />
        </mxCell>
        <mxCell id="UcZ2eeV6gfu7S_-EuZX7-7" style="edgeStyle=orthogonalEdgeStyle;rounded=0;orthogonalLoop=1;jettySize=auto;html=1;exitX=0.5;exitY=0;exitDx=0;exitDy=0;entryX=0.5;entryY=1;entryDx=0;entryDy=0;endArrow=block;endFill=0;endSize=7;strokeColor=#457B9D;" parent="1" source="akxBlBaWW-fTLJFMEqZJ-2" target="akxBlBaWW-fTLJFMEqZJ-1" edge="1">
          <mxGeometry relative="1" as="geometry">
            <mxPoint x="570" y="240" as="targetPoint" />
            <Array as="points">
              <mxPoint x="520" y="300" />
              <mxPoint x="550" y="300" />
            </Array>
          </mxGeometry>
        </mxCell>
        <mxCell id="akxBlBaWW-fTLJFMEqZJ-2" value="Host" style="html=1;strokeColor=#457B9D;fontColor=#1D3557;fillColor=#97D077;" parent="1" vertex="1">
          <mxGeometry x="490" y="330" width="60" height="20" as="geometry" />
        </mxCell>
        <mxCell id="akxBlBaWW-fTLJFMEqZJ-8" style="edgeStyle=orthogonalEdgeStyle;rounded=0;sketch=0;orthogonalLoop=1;jettySize=auto;html=1;exitX=0.5;exitY=0;exitDx=0;exitDy=0;entryX=0.5;entryY=1;entryDx=0;entryDy=0;strokeColor=#457B9D;fillColor=#A8DADC;fontColor=#1D3557;endArrow=block;endFill=0;endSize=7;" parent="1" source="akxBlBaWW-fTLJFMEqZJ-3" target="akxBlBaWW-fTLJFMEqZJ-1" edge="1">
          <mxGeometry relative="1" as="geometry">
            <mxPoint x="540" y="240" as="targetPoint" />
            <Array as="points">
              <mxPoint x="370" y="290" />
              <mxPoint x="550" y="290" />
            </Array>
          </mxGeometry>
        </mxCell>
        <mxCell id="akxBlBaWW-fTLJFMEqZJ-3" value="Engine" style="html=1;strokeColor=#457B9D;fontColor=#1D3557;fillColor=#97D077;" parent="1" vertex="1">
          <mxGeometry x="340" y="330" width="60" height="20" as="geometry" />
        </mxCell>
        <mxCell id="UcZ2eeV6gfu7S_-EuZX7-8" style="edgeStyle=orthogonalEdgeStyle;rounded=0;orthogonalLoop=1;jettySize=auto;html=1;exitX=0.5;exitY=0;exitDx=0;exitDy=0;endArrow=block;endFill=0;endSize=7;strokeColor=#457B9D;" parent="1" source="akxBlBaWW-fTLJFMEqZJ-4" edge="1">
          <mxGeometry relative="1" as="geometry">
            <mxPoint x="550" y="240" as="targetPoint" />
            <Array as="points">
              <mxPoint x="670" y="320" />
              <mxPoint x="550" y="320" />
            </Array>
          </mxGeometry>
        </mxCell>
        <mxCell id="akxBlBaWW-fTLJFMEqZJ-4" value="Context" style="html=1;strokeColor=#457B9D;fontColor=#1D3557;fillColor=#97D077;" parent="1" vertex="1">
          <mxGeometry x="640" y="330" width="60" height="20" as="geometry" />
        </mxCell>
        <mxCell id="UcZ2eeV6gfu7S_-EuZX7-9" style="edgeStyle=orthogonalEdgeStyle;rounded=0;orthogonalLoop=1;jettySize=auto;html=1;exitX=0.5;exitY=0;exitDx=0;exitDy=0;endArrow=block;endFill=0;endSize=7;strokeColor=#457B9D;" parent="1" source="akxBlBaWW-fTLJFMEqZJ-5" edge="1">
          <mxGeometry relative="1" as="geometry">
            <mxPoint x="550" y="240" as="targetPoint" />
            <Array as="points">
              <mxPoint x="870" y="310" />
              <mxPoint x="550" y="310" />
            </Array>
          </mxGeometry>
        </mxCell>
        <mxCell id="akxBlBaWW-fTLJFMEqZJ-5" value="Wrapper" style="html=1;strokeColor=#457B9D;fontColor=#1D3557;fillColor=#97D077;" parent="1" vertex="1">
          <mxGeometry x="840" y="330" width="60" height="20" as="geometry" />
        </mxCell>
        <mxCell id="UcZ2eeV6gfu7S_-EuZX7-20" style="edgeStyle=orthogonalEdgeStyle;rounded=0;orthogonalLoop=1;jettySize=auto;html=1;exitX=0.25;exitY=0;exitDx=0;exitDy=0;entryX=0.5;entryY=1;entryDx=0;entryDy=0;endArrow=block;endFill=0;endSize=7;strokeColor=#457B9D;" parent="1" source="akxBlBaWW-fTLJFMEqZJ-7" target="akxBlBaWW-fTLJFMEqZJ-10" edge="1">
          <mxGeometry relative="1" as="geometry">
            <Array as="points">
              <mxPoint x="120" y="270" />
            </Array>
          </mxGeometry>
        </mxCell>
        <mxCell id="akxBlBaWW-fTLJFMEqZJ-7" value="ContainerBase" style="html=1;fillColor=#A8DADC;strokeColor=#457B9D;fontColor=#1D3557;" parent="1" vertex="1">
          <mxGeometry x="90" y="260" width="100" height="20" as="geometry" />
        </mxCell>
        <mxCell id="akxBlBaWW-fTLJFMEqZJ-12" style="edgeStyle=orthogonalEdgeStyle;rounded=0;sketch=0;orthogonalLoop=1;jettySize=auto;html=1;exitX=0.25;exitY=0;exitDx=0;exitDy=0;entryX=0.5;entryY=1;entryDx=0;entryDy=0;endArrow=block;endFill=0;endSize=7;strokeColor=#457B9D;fillColor=#A8DADC;fontColor=#1D3557;dashed=1;" parent="1" source="akxBlBaWW-fTLJFMEqZJ-10" target="akxBlBaWW-fTLJFMEqZJ-11" edge="1">
          <mxGeometry relative="1" as="geometry">
            <Array as="points">
              <mxPoint x="90" y="170" />
              <mxPoint x="10" y="170" />
            </Array>
          </mxGeometry>
        </mxCell>
        <mxCell id="akxBlBaWW-fTLJFMEqZJ-14" style="edgeStyle=orthogonalEdgeStyle;rounded=0;sketch=0;orthogonalLoop=1;jettySize=auto;html=1;exitX=0.5;exitY=0;exitDx=0;exitDy=0;entryX=0.5;entryY=1;entryDx=0;entryDy=0;endArrow=block;endFill=0;endSize=7;strokeColor=#457B9D;fillColor=#A8DADC;fontColor=#1D3557;" parent="1" source="akxBlBaWW-fTLJFMEqZJ-10" target="akxBlBaWW-fTLJFMEqZJ-13" edge="1">
          <mxGeometry relative="1" as="geometry" />
        </mxCell>
        <mxCell id="akxBlBaWW-fTLJFMEqZJ-10" value="LifecycleMBeanBase" style="html=1;fillColor=#A8DADC;strokeColor=#457B9D;fontColor=#1D3557;" parent="1" vertex="1">
          <mxGeometry x="60" y="180" width="120" height="20" as="geometry" />
        </mxCell>
        <mxCell id="akxBlBaWW-fTLJFMEqZJ-11" value="JmxEnabled" style="html=1;strokeColor=#457B9D;fontColor=#1D3557;fillColor=#97D077;" parent="1" vertex="1">
          <mxGeometry x="-30" y="130" width="80" height="20" as="geometry" />
        </mxCell>
        <mxCell id="akxBlBaWW-fTLJFMEqZJ-16" style="edgeStyle=orthogonalEdgeStyle;rounded=0;sketch=0;orthogonalLoop=1;jettySize=auto;html=1;exitX=0.5;exitY=0;exitDx=0;exitDy=0;entryX=0.5;entryY=1;entryDx=0;entryDy=0;endArrow=block;endFill=0;endSize=7;strokeColor=#457B9D;fillColor=#A8DADC;fontColor=#1D3557;dashed=1;" parent="1" source="akxBlBaWW-fTLJFMEqZJ-13" target="akxBlBaWW-fTLJFMEqZJ-15" edge="1">
          <mxGeometry relative="1" as="geometry" />
        </mxCell>
        <mxCell id="akxBlBaWW-fTLJFMEqZJ-13" value="LifecycleBase" style="html=1;fillColor=#A8DADC;strokeColor=#457B9D;fontColor=#1D3557;" parent="1" vertex="1">
          <mxGeometry x="70" y="130" width="100" height="20" as="geometry" />
        </mxCell>
        <mxCell id="akxBlBaWW-fTLJFMEqZJ-15" value="Lifecycle" style="html=1;strokeColor=#457B9D;fontColor=#1D3557;fillColor=#97D077;" parent="1" vertex="1">
          <mxGeometry x="80" y="80" width="80" height="20" as="geometry" />
        </mxCell>
        <mxCell id="akxBlBaWW-fTLJFMEqZJ-22" style="edgeStyle=orthogonalEdgeStyle;rounded=0;sketch=0;orthogonalLoop=1;jettySize=auto;html=1;exitX=0.5;exitY=0;exitDx=0;exitDy=0;entryX=0.5;entryY=1;entryDx=0;entryDy=0;endArrow=block;endFill=0;endSize=7;strokeColor=#457B9D;fillColor=#A8DADC;fontColor=#1D3557;dashed=1;" parent="1" source="akxBlBaWW-fTLJFMEqZJ-20" target="akxBlBaWW-fTLJFMEqZJ-3" edge="1">
          <mxGeometry relative="1" as="geometry" />
        </mxCell>
        <mxCell id="akxBlBaWW-fTLJFMEqZJ-20" value="StandardEngine" style="html=1;fillColor=#A8DADC;strokeColor=#457B9D;fontColor=#1D3557;" parent="1" vertex="1">
          <mxGeometry x="320" y="510" width="100" height="20" as="geometry" />
        </mxCell>
        <mxCell id="UcZ2eeV6gfu7S_-EuZX7-2" style="edgeStyle=orthogonalEdgeStyle;rounded=0;orthogonalLoop=1;jettySize=auto;html=1;exitX=0.5;exitY=0;exitDx=0;exitDy=0;entryX=0.5;entryY=1;entryDx=0;entryDy=0;endArrow=block;endFill=0;endSize=7;strokeColor=#457B9D;dashed=1;" parent="1" source="akxBlBaWW-fTLJFMEqZJ-23" target="akxBlBaWW-fTLJFMEqZJ-2" edge="1">
          <mxGeometry relative="1" as="geometry" />
        </mxCell>
        <mxCell id="UcZ2eeV6gfu7S_-EuZX7-25" style="edgeStyle=orthogonalEdgeStyle;rounded=0;orthogonalLoop=1;jettySize=auto;html=1;exitX=0;exitY=0.5;exitDx=0;exitDy=0;entryX=1;entryY=0.5;entryDx=0;entryDy=0;endArrow=diamondThin;endFill=0;endSize=10;strokeColor=#457B9D;" parent="1" source="akxBlBaWW-fTLJFMEqZJ-23" target="akxBlBaWW-fTLJFMEqZJ-20" edge="1">
          <mxGeometry relative="1" as="geometry" />
        </mxCell>
        <mxCell id="akxBlBaWW-fTLJFMEqZJ-23" value="StandardHost" style="html=1;fillColor=#A8DADC;strokeColor=#457B9D;fontColor=#1D3557;" parent="1" vertex="1">
          <mxGeometry x="470" y="510" width="100" height="20" as="geometry" />
        </mxCell>
        <mxCell id="UcZ2eeV6gfu7S_-EuZX7-3" style="edgeStyle=orthogonalEdgeStyle;rounded=0;orthogonalLoop=1;jettySize=auto;html=1;exitX=0.5;exitY=0;exitDx=0;exitDy=0;entryX=0.5;entryY=1;entryDx=0;entryDy=0;endArrow=block;endFill=0;endSize=7;strokeColor=#457B9D;dashed=1;" parent="1" source="akxBlBaWW-fTLJFMEqZJ-24" target="akxBlBaWW-fTLJFMEqZJ-4" edge="1">
          <mxGeometry relative="1" as="geometry" />
        </mxCell>
        <mxCell id="UcZ2eeV6gfu7S_-EuZX7-16" style="edgeStyle=orthogonalEdgeStyle;rounded=0;orthogonalLoop=1;jettySize=auto;html=1;exitX=0.75;exitY=0;exitDx=0;exitDy=0;entryX=0.25;entryY=1;entryDx=0;entryDy=0;endArrow=block;endFill=0;endSize=7;strokeColor=#457B9D;dashed=1;" parent="1" source="akxBlBaWW-fTLJFMEqZJ-24" target="UcZ2eeV6gfu7S_-EuZX7-11" edge="1">
          <mxGeometry relative="1" as="geometry">
            <Array as="points">
              <mxPoint x="695" y="460" />
              <mxPoint x="740" y="460" />
            </Array>
          </mxGeometry>
        </mxCell>
        <mxCell id="UcZ2eeV6gfu7S_-EuZX7-26" style="edgeStyle=orthogonalEdgeStyle;rounded=0;orthogonalLoop=1;jettySize=auto;html=1;exitX=0;exitY=0.5;exitDx=0;exitDy=0;entryX=1;entryY=0.5;entryDx=0;entryDy=0;endArrow=diamondThin;endFill=0;endSize=10;strokeColor=#457B9D;" parent="1" source="akxBlBaWW-fTLJFMEqZJ-24" target="akxBlBaWW-fTLJFMEqZJ-23" edge="1">
          <mxGeometry relative="1" as="geometry" />
        </mxCell>
        <mxCell id="akxBlBaWW-fTLJFMEqZJ-24" value="StandardContext" style="html=1;fillColor=#A8DADC;strokeColor=#457B9D;fontColor=#1D3557;" parent="1" vertex="1">
          <mxGeometry x="620" y="510" width="100" height="20" as="geometry" />
        </mxCell>
        <mxCell id="UcZ2eeV6gfu7S_-EuZX7-4" style="edgeStyle=orthogonalEdgeStyle;rounded=0;orthogonalLoop=1;jettySize=auto;html=1;exitX=0.5;exitY=0;exitDx=0;exitDy=0;entryX=0.5;entryY=1;entryDx=0;entryDy=0;endArrow=block;endFill=0;endSize=7;strokeColor=#457B9D;" parent="1" source="akxBlBaWW-fTLJFMEqZJ-25" target="akxBlBaWW-fTLJFMEqZJ-5" edge="1">
          <mxGeometry relative="1" as="geometry" />
        </mxCell>
        <mxCell id="UcZ2eeV6gfu7S_-EuZX7-17" style="edgeStyle=orthogonalEdgeStyle;rounded=0;orthogonalLoop=1;jettySize=auto;html=1;exitX=0.25;exitY=0;exitDx=0;exitDy=0;entryX=0.75;entryY=1;entryDx=0;entryDy=0;endArrow=block;endFill=0;endSize=7;strokeColor=#457B9D;dashed=1;" parent="1" source="akxBlBaWW-fTLJFMEqZJ-25" target="UcZ2eeV6gfu7S_-EuZX7-11" edge="1">
          <mxGeometry relative="1" as="geometry">
            <Array as="points">
              <mxPoint x="845" y="460" />
              <mxPoint x="800" y="460" />
            </Array>
          </mxGeometry>
        </mxCell>
        <mxCell id="UcZ2eeV6gfu7S_-EuZX7-18" style="edgeStyle=orthogonalEdgeStyle;rounded=0;orthogonalLoop=1;jettySize=auto;html=1;exitX=0.75;exitY=0;exitDx=0;exitDy=0;entryX=0.5;entryY=1;entryDx=0;entryDy=0;endArrow=block;endFill=0;endSize=7;strokeColor=#457B9D;dashed=1;" parent="1" source="akxBlBaWW-fTLJFMEqZJ-25" target="UcZ2eeV6gfu7S_-EuZX7-14" edge="1">
          <mxGeometry relative="1" as="geometry">
            <Array as="points">
              <mxPoint x="895" y="460" />
              <mxPoint x="960" y="460" />
            </Array>
          </mxGeometry>
        </mxCell>
        <mxCell id="UcZ2eeV6gfu7S_-EuZX7-27" style="edgeStyle=orthogonalEdgeStyle;rounded=0;orthogonalLoop=1;jettySize=auto;html=1;exitX=0;exitY=0.5;exitDx=0;exitDy=0;entryX=1;entryY=0.5;entryDx=0;entryDy=0;endArrow=diamondThin;endFill=0;endSize=10;strokeColor=#457B9D;" parent="1" source="akxBlBaWW-fTLJFMEqZJ-25" target="akxBlBaWW-fTLJFMEqZJ-24" edge="1">
          <mxGeometry relative="1" as="geometry" />
        </mxCell>
        <mxCell id="akxBlBaWW-fTLJFMEqZJ-25" value="StandardWrapper" style="html=1;fillColor=#A8DADC;strokeColor=#457B9D;fontColor=#1D3557;" parent="1" vertex="1">
          <mxGeometry x="820" y="510" width="100" height="20" as="geometry" />
        </mxCell>
        <mxCell id="UcZ2eeV6gfu7S_-EuZX7-15" style="edgeStyle=orthogonalEdgeStyle;rounded=0;orthogonalLoop=1;jettySize=auto;html=1;exitX=0.5;exitY=0;exitDx=0;exitDy=0;entryX=0.5;entryY=1;entryDx=0;entryDy=0;endArrow=block;endFill=0;endSize=7;strokeColor=#457B9D;" parent="1" source="UcZ2eeV6gfu7S_-EuZX7-11" target="UcZ2eeV6gfu7S_-EuZX7-12" edge="1">
          <mxGeometry relative="1" as="geometry" />
        </mxCell>
        <mxCell id="UcZ2eeV6gfu7S_-EuZX7-11" value="NotificationEmitter" style="html=1;strokeColor=#457B9D;fontColor=#1D3557;fillColor=#97D077;" parent="1" vertex="1">
          <mxGeometry x="710" y="420" width="120" height="20" as="geometry" />
        </mxCell>
        <mxCell id="UcZ2eeV6gfu7S_-EuZX7-12" value="NotificationBroadcaster" style="html=1;strokeColor=#457B9D;fontColor=#1D3557;fillColor=#97D077;" parent="1" vertex="1">
          <mxGeometry x="700" y="370" width="140" height="20" as="geometry" />
        </mxCell>
        <mxCell id="UcZ2eeV6gfu7S_-EuZX7-14" value="NotificationEmitter" style="html=1;strokeColor=#457B9D;fontColor=#1D3557;fillColor=#97D077;" parent="1" vertex="1">
          <mxGeometry x="900" y="420" width="120" height="20" as="geometry" />
        </mxCell>
      </root>
    </mxGraphModel>
  </diagram>
  <diagram id="a0g0rvctQpB0N_MTDLST" name="第 2 页">
    <mxGraphModel dx="984" dy="659" grid="0" gridSize="10" guides="1" tooltips="1" connect="1" arrows="1" fold="1" page="1" pageScale="1" pageWidth="3300" pageHeight="4681" background="none" math="0" shadow="0">
      <root>
        <mxCell id="W9zNpmpsUSwXFrq7iUbq-0" />
        <mxCell id="W9zNpmpsUSwXFrq7iUbq-1" parent="W9zNpmpsUSwXFrq7iUbq-0" />
        <mxCell id="l5pVDytUrsDA2l9Rdfmx-3" value="" style="rounded=0;whiteSpace=wrap;html=1;fillColor=#D5E8D4;strokeColor=none;" parent="W9zNpmpsUSwXFrq7iUbq-1" vertex="1">
          <mxGeometry x="540" y="790" width="520" height="280" as="geometry" />
        </mxCell>
        <mxCell id="l5pVDytUrsDA2l9Rdfmx-2" value="" style="rounded=0;whiteSpace=wrap;html=1;strokeColor=none;fillColor=#D4E1F5;" parent="W9zNpmpsUSwXFrq7iUbq-1" vertex="1">
          <mxGeometry x="240" y="770" width="300" height="300" as="geometry" />
        </mxCell>
        <mxCell id="l5pVDytUrsDA2l9Rdfmx-1" value="" style="rounded=0;whiteSpace=wrap;html=1;strokeColor=none;fillColor=#E6E6E6;" parent="W9zNpmpsUSwXFrq7iUbq-1" vertex="1">
          <mxGeometry x="240" y="710" width="820" height="60" as="geometry" />
        </mxCell>
        <mxCell id="kzwtzmiWURXjqiiIkdTv-11" value="" style="rounded=0;whiteSpace=wrap;html=1;strokeColor=none;fillColor=#E6E6E6;" parent="W9zNpmpsUSwXFrq7iUbq-1" vertex="1">
          <mxGeometry x="600" y="320" width="120" height="130" as="geometry" />
        </mxCell>
        <mxCell id="kzwtzmiWURXjqiiIkdTv-10" value="" style="rounded=0;whiteSpace=wrap;html=1;strokeColor=none;fillColor=#D4E1F5;" parent="W9zNpmpsUSwXFrq7iUbq-1" vertex="1">
          <mxGeometry x="720" y="320" width="240" height="130" as="geometry" />
        </mxCell>
        <mxCell id="kzwtzmiWURXjqiiIkdTv-8" value="" style="rounded=0;whiteSpace=wrap;html=1;fillColor=#D5E8D4;strokeColor=none;" parent="W9zNpmpsUSwXFrq7iUbq-1" vertex="1">
          <mxGeometry x="270" y="450" width="690" height="180" as="geometry" />
        </mxCell>
        <mxCell id="tJWTK9vPmwsosydxoks9-28" style="edgeStyle=orthogonalEdgeStyle;rounded=0;sketch=0;orthogonalLoop=1;jettySize=auto;html=1;exitX=1;exitY=0.5;exitDx=0;exitDy=0;entryX=0;entryY=0.5;entryDx=0;entryDy=0;endArrow=open;endFill=0;endSize=7;strokeColor=#457B9D;fillColor=#A8DADC;fontColor=#1D3557;dashed=1;" parent="W9zNpmpsUSwXFrq7iUbq-1" source="tJWTK9vPmwsosydxoks9-0" target="tJWTK9vPmwsosydxoks9-1" edge="1">
          <mxGeometry relative="1" as="geometry" />
        </mxCell>
        <mxCell id="tJWTK9vPmwsosydxoks9-0" value="Connector" style="html=1;fillColor=#A8DADC;fontColor=#1D3557;strokeColor=#457B9D;" parent="W9zNpmpsUSwXFrq7iUbq-1" vertex="1">
          <mxGeometry x="280" y="370" width="80" height="20" as="geometry" />
        </mxCell>
        <mxCell id="tJWTK9vPmwsosydxoks9-1" value="ProtocolHandler" style="html=1;strokeColor=#457B9D;fontColor=#1D3557;fillColor=#97D077;" parent="W9zNpmpsUSwXFrq7iUbq-1" vertex="1">
          <mxGeometry x="450" y="370" width="100" height="20" as="geometry" />
        </mxCell>
        <mxCell id="tJWTK9vPmwsosydxoks9-2" value="Adapter" style="html=1;strokeColor=#457B9D;fontColor=#1D3557;fillColor=#97D077;" parent="W9zNpmpsUSwXFrq7iUbq-1" vertex="1">
          <mxGeometry x="610" y="320" width="100" height="20" as="geometry" />
        </mxCell>
        <mxCell id="tJWTK9vPmwsosydxoks9-27" style="edgeStyle=orthogonalEdgeStyle;rounded=0;sketch=0;orthogonalLoop=1;jettySize=auto;html=1;exitX=0.5;exitY=0;exitDx=0;exitDy=0;entryX=0.5;entryY=1;entryDx=0;entryDy=0;endArrow=block;endFill=0;endSize=7;strokeColor=#457B9D;fillColor=#A8DADC;fontColor=#1D3557;dashed=1;" parent="W9zNpmpsUSwXFrq7iUbq-1" source="tJWTK9vPmwsosydxoks9-3" target="tJWTK9vPmwsosydxoks9-2" edge="1">
          <mxGeometry relative="1" as="geometry" />
        </mxCell>
        <mxCell id="tJWTK9vPmwsosydxoks9-3" value="CoyoteAdapter" style="html=1;strokeColor=#457B9D;fontColor=#1D3557;fillColor=#A8DADC;" parent="W9zNpmpsUSwXFrq7iUbq-1" vertex="1">
          <mxGeometry x="610" y="370" width="100" height="20" as="geometry" />
        </mxCell>
        <mxCell id="tJWTK9vPmwsosydxoks9-29" style="edgeStyle=orthogonalEdgeStyle;rounded=0;sketch=0;orthogonalLoop=1;jettySize=auto;html=1;exitX=0.5;exitY=0;exitDx=0;exitDy=0;entryX=0.25;entryY=1;entryDx=0;entryDy=0;endArrow=open;endFill=0;endSize=7;strokeColor=#457B9D;fillColor=#A8DADC;fontColor=#1D3557;startArrow=diamondThin;startFill=1;startSize=10;" parent="W9zNpmpsUSwXFrq7iUbq-1" source="tJWTK9vPmwsosydxoks9-4" target="tJWTK9vPmwsosydxoks9-2" edge="1">
          <mxGeometry relative="1" as="geometry">
            <Array as="points">
              <mxPoint x="590" y="360" />
              <mxPoint x="635" y="360" />
            </Array>
          </mxGeometry>
        </mxCell>
        <mxCell id="4uWDhSXuh7GLMLmpidKv-1" style="edgeStyle=orthogonalEdgeStyle;rounded=0;orthogonalLoop=1;jettySize=auto;html=1;exitX=0.25;exitY=0;exitDx=0;exitDy=0;dashed=1;endArrow=block;endFill=0;endSize=7;strokeColor=#457B9D;" parent="W9zNpmpsUSwXFrq7iUbq-1" source="tJWTK9vPmwsosydxoks9-4" target="tJWTK9vPmwsosydxoks9-1" edge="1">
          <mxGeometry relative="1" as="geometry">
            <Array as="points">
              <mxPoint x="565" y="430" />
              <mxPoint x="510" y="430" />
            </Array>
          </mxGeometry>
        </mxCell>
        <mxCell id="kzwtzmiWURXjqiiIkdTv-3" style="edgeStyle=orthogonalEdgeStyle;rounded=0;orthogonalLoop=1;jettySize=auto;html=1;exitX=1;exitY=0.5;exitDx=0;exitDy=0;entryX=0;entryY=0.5;entryDx=0;entryDy=0;endArrow=open;endFill=0;endSize=7;strokeColor=#457B9D;startArrow=diamondThin;startFill=1;startSize=10;" parent="W9zNpmpsUSwXFrq7iUbq-1" target="4uWDhSXuh7GLMLmpidKv-2" edge="1">
          <mxGeometry relative="1" as="geometry">
            <mxPoint x="610" y="460" as="sourcePoint" />
            <Array as="points">
              <mxPoint x="610" y="430" />
              <mxPoint x="730" y="430" />
              <mxPoint x="730" y="330" />
            </Array>
          </mxGeometry>
        </mxCell>
        <mxCell id="tJWTK9vPmwsosydxoks9-4" value="AbstractProtocol" style="html=1;fillColor=#A8DADC;strokeColor=#457B9D;fontColor=#1D3557;" parent="W9zNpmpsUSwXFrq7iUbq-1" vertex="1">
          <mxGeometry x="540" y="460" width="100" height="20" as="geometry" />
        </mxCell>
        <mxCell id="tJWTK9vPmwsosydxoks9-25" style="edgeStyle=orthogonalEdgeStyle;rounded=0;sketch=0;orthogonalLoop=1;jettySize=auto;html=1;exitX=0.5;exitY=0;exitDx=0;exitDy=0;entryX=0.75;entryY=1;entryDx=0;entryDy=0;endArrow=block;endFill=0;endSize=7;strokeColor=#457B9D;fillColor=#A8DADC;fontColor=#1D3557;" parent="W9zNpmpsUSwXFrq7iUbq-1" source="tJWTK9vPmwsosydxoks9-8" target="tJWTK9vPmwsosydxoks9-4" edge="1">
          <mxGeometry relative="1" as="geometry">
            <Array as="points">
              <mxPoint x="740" y="500" />
              <mxPoint x="615" y="500" />
            </Array>
          </mxGeometry>
        </mxCell>
        <mxCell id="tJWTK9vPmwsosydxoks9-8" value="AbstractHttp11Protocol" style="html=1;fillColor=#A8DADC;strokeColor=#457B9D;fontColor=#1D3557;" parent="W9zNpmpsUSwXFrq7iUbq-1" vertex="1">
          <mxGeometry x="670" y="510" width="140" height="20" as="geometry" />
        </mxCell>
        <mxCell id="tJWTK9vPmwsosydxoks9-13" style="edgeStyle=orthogonalEdgeStyle;rounded=0;sketch=0;orthogonalLoop=1;jettySize=auto;html=1;exitX=0.5;exitY=0;exitDx=0;exitDy=0;entryX=0.25;entryY=1;entryDx=0;entryDy=0;endArrow=block;endFill=0;endSize=7;strokeColor=#457B9D;fillColor=#A8DADC;fontColor=#1D3557;" parent="W9zNpmpsUSwXFrq7iUbq-1" source="tJWTK9vPmwsosydxoks9-9" target="tJWTK9vPmwsosydxoks9-8" edge="1">
          <mxGeometry relative="1" as="geometry">
            <Array as="points">
              <mxPoint x="670" y="550" />
              <mxPoint x="705" y="550" />
            </Array>
          </mxGeometry>
        </mxCell>
        <mxCell id="tJWTK9vPmwsosydxoks9-9" value="Http11AprProtocol" style="html=1;fillColor=#A8DADC;strokeColor=#457B9D;fontColor=#1D3557;" parent="W9zNpmpsUSwXFrq7iUbq-1" vertex="1">
          <mxGeometry x="610" y="560" width="120" height="20" as="geometry" />
        </mxCell>
        <mxCell id="tJWTK9vPmwsosydxoks9-14" style="edgeStyle=orthogonalEdgeStyle;rounded=0;sketch=0;orthogonalLoop=1;jettySize=auto;html=1;exitX=0.5;exitY=0;exitDx=0;exitDy=0;entryX=0.75;entryY=1;entryDx=0;entryDy=0;endArrow=block;endFill=0;endSize=7;strokeColor=#457B9D;fillColor=#A8DADC;fontColor=#1D3557;" parent="W9zNpmpsUSwXFrq7iUbq-1" source="tJWTK9vPmwsosydxoks9-10" target="tJWTK9vPmwsosydxoks9-8" edge="1">
          <mxGeometry relative="1" as="geometry">
            <Array as="points">
              <mxPoint x="830" y="550" />
              <mxPoint x="775" y="550" />
            </Array>
          </mxGeometry>
        </mxCell>
        <mxCell id="tJWTK9vPmwsosydxoks9-10" value="AbstractHttp11JsseProtocol" style="html=1;fillColor=#A8DADC;strokeColor=#457B9D;fontColor=#1D3557;" parent="W9zNpmpsUSwXFrq7iUbq-1" vertex="1">
          <mxGeometry x="750" y="560" width="160" height="20" as="geometry" />
        </mxCell>
        <mxCell id="tJWTK9vPmwsosydxoks9-15" style="edgeStyle=orthogonalEdgeStyle;rounded=0;sketch=0;orthogonalLoop=1;jettySize=auto;html=1;exitX=0.5;exitY=0;exitDx=0;exitDy=0;entryX=0.25;entryY=1;entryDx=0;entryDy=0;endArrow=block;endFill=0;endSize=7;strokeColor=#457B9D;fillColor=#A8DADC;fontColor=#1D3557;" parent="W9zNpmpsUSwXFrq7iUbq-1" source="tJWTK9vPmwsosydxoks9-11" target="tJWTK9vPmwsosydxoks9-10" edge="1">
          <mxGeometry relative="1" as="geometry">
            <Array as="points">
              <mxPoint x="760" y="600" />
              <mxPoint x="790" y="600" />
            </Array>
          </mxGeometry>
        </mxCell>
        <mxCell id="tJWTK9vPmwsosydxoks9-11" value="Http11NioProtocol" style="html=1;fillColor=#A8DADC;fontColor=#1D3557;strokeColor=#457B9D;" parent="W9zNpmpsUSwXFrq7iUbq-1" vertex="1">
          <mxGeometry x="700" y="610" width="120" height="20" as="geometry" />
        </mxCell>
        <mxCell id="tJWTK9vPmwsosydxoks9-16" style="edgeStyle=orthogonalEdgeStyle;rounded=0;sketch=0;orthogonalLoop=1;jettySize=auto;html=1;exitX=0.5;exitY=0;exitDx=0;exitDy=0;entryX=0.75;entryY=1;entryDx=0;entryDy=0;endArrow=block;endFill=0;endSize=7;strokeColor=#457B9D;fillColor=#A8DADC;fontColor=#1D3557;" parent="W9zNpmpsUSwXFrq7iUbq-1" source="tJWTK9vPmwsosydxoks9-12" target="tJWTK9vPmwsosydxoks9-10" edge="1">
          <mxGeometry relative="1" as="geometry">
            <Array as="points">
              <mxPoint x="900" y="600" />
              <mxPoint x="870" y="600" />
            </Array>
          </mxGeometry>
        </mxCell>
        <mxCell id="tJWTK9vPmwsosydxoks9-12" value="Http11Nio2Protocol" style="html=1;fillColor=#A8DADC;strokeColor=#457B9D;fontColor=#1D3557;" parent="W9zNpmpsUSwXFrq7iUbq-1" vertex="1">
          <mxGeometry x="840" y="610" width="120" height="20" as="geometry" />
        </mxCell>
        <mxCell id="tJWTK9vPmwsosydxoks9-24" style="edgeStyle=orthogonalEdgeStyle;rounded=0;sketch=0;orthogonalLoop=1;jettySize=auto;html=1;exitX=0.5;exitY=0;exitDx=0;exitDy=0;entryX=0.25;entryY=1;entryDx=0;entryDy=0;endArrow=block;endFill=0;endSize=7;strokeColor=#457B9D;fillColor=#A8DADC;fontColor=#1D3557;" parent="W9zNpmpsUSwXFrq7iUbq-1" source="tJWTK9vPmwsosydxoks9-17" target="tJWTK9vPmwsosydxoks9-4" edge="1">
          <mxGeometry relative="1" as="geometry">
            <Array as="points">
              <mxPoint x="430" y="500" />
              <mxPoint x="565" y="500" />
            </Array>
          </mxGeometry>
        </mxCell>
        <mxCell id="tJWTK9vPmwsosydxoks9-17" value="AbstractAjpProtocol" style="html=1;fillColor=#A8DADC;strokeColor=#457B9D;fontColor=#1D3557;" parent="W9zNpmpsUSwXFrq7iUbq-1" vertex="1">
          <mxGeometry x="370" y="510" width="120" height="20" as="geometry" />
        </mxCell>
        <mxCell id="tJWTK9vPmwsosydxoks9-21" style="edgeStyle=orthogonalEdgeStyle;rounded=0;sketch=0;orthogonalLoop=1;jettySize=auto;html=1;exitX=0.5;exitY=0;exitDx=0;exitDy=0;entryX=0.25;entryY=1;entryDx=0;entryDy=0;endArrow=block;endFill=0;endSize=7;strokeColor=#457B9D;fillColor=#A8DADC;fontColor=#1D3557;" parent="W9zNpmpsUSwXFrq7iUbq-1" source="tJWTK9vPmwsosydxoks9-18" target="tJWTK9vPmwsosydxoks9-17" edge="1">
          <mxGeometry relative="1" as="geometry">
            <Array as="points">
              <mxPoint x="320" y="550" />
              <mxPoint x="400" y="550" />
            </Array>
          </mxGeometry>
        </mxCell>
        <mxCell id="tJWTK9vPmwsosydxoks9-18" value="AjpAprProtocol" style="html=1;fillColor=#A8DADC;strokeColor=#457B9D;fontColor=#1D3557;" parent="W9zNpmpsUSwXFrq7iUbq-1" vertex="1">
          <mxGeometry x="270" y="560" width="100" height="20" as="geometry" />
        </mxCell>
        <mxCell id="tJWTK9vPmwsosydxoks9-22" style="edgeStyle=orthogonalEdgeStyle;rounded=0;sketch=0;orthogonalLoop=1;jettySize=auto;html=1;exitX=0.5;exitY=0;exitDx=0;exitDy=0;entryX=0.5;entryY=1;entryDx=0;entryDy=0;endArrow=block;endFill=0;endSize=7;strokeColor=#457B9D;fillColor=#A8DADC;fontColor=#1D3557;" parent="W9zNpmpsUSwXFrq7iUbq-1" source="tJWTK9vPmwsosydxoks9-19" target="tJWTK9vPmwsosydxoks9-17" edge="1">
          <mxGeometry relative="1" as="geometry" />
        </mxCell>
        <mxCell id="tJWTK9vPmwsosydxoks9-19" value="AjpNioProtocol" style="html=1;fillColor=#A8DADC;strokeColor=#457B9D;fontColor=#1D3557;" parent="W9zNpmpsUSwXFrq7iUbq-1" vertex="1">
          <mxGeometry x="380" y="560" width="100" height="20" as="geometry" />
        </mxCell>
        <mxCell id="tJWTK9vPmwsosydxoks9-23" style="edgeStyle=orthogonalEdgeStyle;rounded=0;sketch=0;orthogonalLoop=1;jettySize=auto;html=1;exitX=0.5;exitY=0;exitDx=0;exitDy=0;entryX=0.75;entryY=1;entryDx=0;entryDy=0;endArrow=block;endFill=0;endSize=7;strokeColor=#457B9D;fillColor=#A8DADC;fontColor=#1D3557;" parent="W9zNpmpsUSwXFrq7iUbq-1" source="tJWTK9vPmwsosydxoks9-20" target="tJWTK9vPmwsosydxoks9-17" edge="1">
          <mxGeometry relative="1" as="geometry">
            <Array as="points">
              <mxPoint x="540" y="550" />
              <mxPoint x="460" y="550" />
            </Array>
          </mxGeometry>
        </mxCell>
        <mxCell id="tJWTK9vPmwsosydxoks9-20" value="AjpNio2Protocol" style="html=1;fillColor=#A8DADC;strokeColor=#457B9D;fontColor=#1D3557;" parent="W9zNpmpsUSwXFrq7iUbq-1" vertex="1">
          <mxGeometry x="490" y="560" width="100" height="20" as="geometry" />
        </mxCell>
        <mxCell id="tJWTK9vPmwsosydxoks9-37" style="edgeStyle=orthogonalEdgeStyle;rounded=0;sketch=0;orthogonalLoop=1;jettySize=auto;html=1;exitX=0.5;exitY=0;exitDx=0;exitDy=0;entryX=0.5;entryY=1;entryDx=0;entryDy=0;endArrow=block;endFill=0;endSize=7;strokeColor=#457B9D;fillColor=#A8DADC;fontColor=#1D3557;" parent="W9zNpmpsUSwXFrq7iUbq-1" source="tJWTK9vPmwsosydxoks9-30" target="tJWTK9vPmwsosydxoks9-32" edge="1">
          <mxGeometry relative="1" as="geometry" />
        </mxCell>
        <mxCell id="tJWTK9vPmwsosydxoks9-39" style="edgeStyle=orthogonalEdgeStyle;rounded=0;sketch=0;orthogonalLoop=1;jettySize=auto;html=1;exitX=0.75;exitY=0;exitDx=0;exitDy=0;entryX=0.5;entryY=1;entryDx=0;entryDy=0;endArrow=block;endFill=0;endSize=7;strokeColor=#457B9D;fillColor=#A8DADC;fontColor=#1D3557;dashed=1;" parent="W9zNpmpsUSwXFrq7iUbq-1" source="tJWTK9vPmwsosydxoks9-30" target="tJWTK9vPmwsosydxoks9-34" edge="1">
          <mxGeometry relative="1" as="geometry">
            <Array as="points">
              <mxPoint x="110" y="210" />
              <mxPoint x="200" y="210" />
            </Array>
          </mxGeometry>
        </mxCell>
        <mxCell id="tJWTK9vPmwsosydxoks9-30" value="LifecycleMBeanBase" style="html=1;fillColor=#A8DADC;strokeColor=#457B9D;fontColor=#1D3557;" parent="W9zNpmpsUSwXFrq7iUbq-1" vertex="1">
          <mxGeometry x="20" y="220" width="120" height="20" as="geometry" />
        </mxCell>
        <mxCell id="tJWTK9vPmwsosydxoks9-38" style="edgeStyle=orthogonalEdgeStyle;rounded=0;sketch=0;orthogonalLoop=1;jettySize=auto;html=1;exitX=0.5;exitY=0;exitDx=0;exitDy=0;entryX=0.5;entryY=1;entryDx=0;entryDy=0;endArrow=block;endFill=0;endSize=7;strokeColor=#457B9D;fillColor=#A8DADC;fontColor=#1D3557;dashed=1;" parent="W9zNpmpsUSwXFrq7iUbq-1" source="tJWTK9vPmwsosydxoks9-32" target="tJWTK9vPmwsosydxoks9-33" edge="1">
          <mxGeometry relative="1" as="geometry" />
        </mxCell>
        <mxCell id="tJWTK9vPmwsosydxoks9-32" value="LifecycleBase" style="html=1;fillColor=#A8DADC;strokeColor=#457B9D;fontColor=#1D3557;" parent="W9zNpmpsUSwXFrq7iUbq-1" vertex="1">
          <mxGeometry x="40" y="170" width="80" height="20" as="geometry" />
        </mxCell>
        <mxCell id="tJWTK9vPmwsosydxoks9-33" value="Lifecycle" style="html=1;strokeColor=#457B9D;fontColor=#1D3557;fillColor=#97D077;" parent="W9zNpmpsUSwXFrq7iUbq-1" vertex="1">
          <mxGeometry x="40" y="120" width="80" height="20" as="geometry" />
        </mxCell>
        <mxCell id="tJWTK9vPmwsosydxoks9-40" style="edgeStyle=orthogonalEdgeStyle;rounded=0;sketch=0;orthogonalLoop=1;jettySize=auto;html=1;exitX=0.5;exitY=0;exitDx=0;exitDy=0;entryX=0.5;entryY=1;entryDx=0;entryDy=0;endArrow=block;endFill=0;endSize=7;strokeColor=#457B9D;fillColor=#A8DADC;fontColor=#1D3557;" parent="W9zNpmpsUSwXFrq7iUbq-1" source="tJWTK9vPmwsosydxoks9-34" target="tJWTK9vPmwsosydxoks9-35" edge="1">
          <mxGeometry relative="1" as="geometry" />
        </mxCell>
        <mxCell id="tJWTK9vPmwsosydxoks9-34" value="JmxEnabled" style="html=1;strokeColor=#457B9D;fontColor=#1D3557;fillColor=#97D077;" parent="W9zNpmpsUSwXFrq7iUbq-1" vertex="1">
          <mxGeometry x="160" y="170" width="80" height="20" as="geometry" />
        </mxCell>
        <mxCell id="tJWTK9vPmwsosydxoks9-35" value="MBeanRegistration" style="html=1;strokeColor=#457B9D;fontColor=#1D3557;fillColor=#97D077;" parent="W9zNpmpsUSwXFrq7iUbq-1" vertex="1">
          <mxGeometry x="140" y="120" width="120" height="20" as="geometry" />
        </mxCell>
        <mxCell id="4uWDhSXuh7GLMLmpidKv-2" value="AbstractEndpoint" style="html=1;strokeColor=#457B9D;fontColor=#1D3557;fillColor=#A8DADC;" parent="W9zNpmpsUSwXFrq7iUbq-1" vertex="1">
          <mxGeometry x="780" y="320" width="100" height="20" as="geometry" />
        </mxCell>
        <mxCell id="kzwtzmiWURXjqiiIkdTv-7" style="edgeStyle=orthogonalEdgeStyle;rounded=0;orthogonalLoop=1;jettySize=auto;html=1;exitX=0.5;exitY=0;exitDx=0;exitDy=0;entryX=0.25;entryY=1;entryDx=0;entryDy=0;endArrow=block;endFill=0;endSize=7;strokeColor=#457B9D;" parent="W9zNpmpsUSwXFrq7iUbq-1" source="4uWDhSXuh7GLMLmpidKv-3" target="4uWDhSXuh7GLMLmpidKv-2" edge="1">
          <mxGeometry relative="1" as="geometry">
            <Array as="points">
              <mxPoint x="780" y="360" />
              <mxPoint x="805" y="360" />
            </Array>
          </mxGeometry>
        </mxCell>
        <mxCell id="4uWDhSXuh7GLMLmpidKv-3" value="AprEndpoint" style="html=1;strokeColor=#457B9D;fontColor=#1D3557;fillColor=#A8DADC;" parent="W9zNpmpsUSwXFrq7iUbq-1" vertex="1">
          <mxGeometry x="740" y="370" width="80" height="20" as="geometry" />
        </mxCell>
        <mxCell id="kzwtzmiWURXjqiiIkdTv-5" style="edgeStyle=orthogonalEdgeStyle;rounded=0;orthogonalLoop=1;jettySize=auto;html=1;exitX=0.5;exitY=0;exitDx=0;exitDy=0;entryX=0.25;entryY=1;entryDx=0;entryDy=0;endArrow=block;endFill=0;endSize=7;strokeColor=#457B9D;" parent="W9zNpmpsUSwXFrq7iUbq-1" source="kzwtzmiWURXjqiiIkdTv-0" target="kzwtzmiWURXjqiiIkdTv-1" edge="1">
          <mxGeometry relative="1" as="geometry">
            <Array as="points">
              <mxPoint x="840" y="410" />
              <mxPoint x="870" y="410" />
            </Array>
          </mxGeometry>
        </mxCell>
        <mxCell id="kzwtzmiWURXjqiiIkdTv-0" value="NioEndpoint" style="html=1;strokeColor=#457B9D;fontColor=#1D3557;fillColor=#A8DADC;" parent="W9zNpmpsUSwXFrq7iUbq-1" vertex="1">
          <mxGeometry x="790" y="420" width="80" height="20" as="geometry" />
        </mxCell>
        <mxCell id="kzwtzmiWURXjqiiIkdTv-6" style="edgeStyle=orthogonalEdgeStyle;rounded=0;orthogonalLoop=1;jettySize=auto;html=1;exitX=0.5;exitY=0;exitDx=0;exitDy=0;entryX=0.75;entryY=1;entryDx=0;entryDy=0;endArrow=block;endFill=0;endSize=7;strokeColor=#457B9D;" parent="W9zNpmpsUSwXFrq7iUbq-1" source="kzwtzmiWURXjqiiIkdTv-1" target="4uWDhSXuh7GLMLmpidKv-2" edge="1">
          <mxGeometry relative="1" as="geometry">
            <Array as="points">
              <mxPoint x="900" y="360" />
              <mxPoint x="855" y="360" />
            </Array>
          </mxGeometry>
        </mxCell>
        <mxCell id="kzwtzmiWURXjqiiIkdTv-1" value="AbstractJsseEndpoint" style="html=1;strokeColor=#457B9D;fontColor=#1D3557;fillColor=#A8DADC;" parent="W9zNpmpsUSwXFrq7iUbq-1" vertex="1">
          <mxGeometry x="840" y="370" width="120" height="20" as="geometry" />
        </mxCell>
        <mxCell id="kzwtzmiWURXjqiiIkdTv-4" style="edgeStyle=orthogonalEdgeStyle;rounded=0;orthogonalLoop=1;jettySize=auto;html=1;exitX=0.5;exitY=0;exitDx=0;exitDy=0;entryX=0.75;entryY=1;entryDx=0;entryDy=0;endArrow=block;endFill=0;endSize=7;strokeColor=#457B9D;" parent="W9zNpmpsUSwXFrq7iUbq-1" source="kzwtzmiWURXjqiiIkdTv-2" target="kzwtzmiWURXjqiiIkdTv-1" edge="1">
          <mxGeometry relative="1" as="geometry">
            <Array as="points">
              <mxPoint x="930" y="420" />
            </Array>
          </mxGeometry>
        </mxCell>
        <mxCell id="kzwtzmiWURXjqiiIkdTv-2" value="Nio2Endpoint" style="html=1;strokeColor=#457B9D;fontColor=#1D3557;fillColor=#A8DADC;" parent="W9zNpmpsUSwXFrq7iUbq-1" vertex="1">
          <mxGeometry x="880" y="420" width="80" height="20" as="geometry" />
        </mxCell>
        <mxCell id="zOc-NiBwnLOCkY9RsDsh-0" style="edgeStyle=orthogonalEdgeStyle;rounded=0;sketch=0;orthogonalLoop=1;jettySize=auto;html=1;exitX=0.5;exitY=1;exitDx=0;exitDy=0;entryX=0.5;entryY=0;entryDx=0;entryDy=0;strokeColor=#457B9D;fillColor=#A8DADC;fontColor=#1D3557;endArrow=open;endFill=0;startArrow=diamondThin;startFill=1;startSize=10;" parent="W9zNpmpsUSwXFrq7iUbq-1" source="zOc-NiBwnLOCkY9RsDsh-2" target="zOc-NiBwnLOCkY9RsDsh-4" edge="1">
          <mxGeometry relative="1" as="geometry">
            <Array as="points">
              <mxPoint x="600" y="1050" />
              <mxPoint x="600" y="1050" />
            </Array>
          </mxGeometry>
        </mxCell>
        <mxCell id="zOc-NiBwnLOCkY9RsDsh-1" style="edgeStyle=orthogonalEdgeStyle;rounded=0;sketch=0;orthogonalLoop=1;jettySize=auto;html=1;exitX=0.25;exitY=1;exitDx=0;exitDy=0;entryX=0.75;entryY=0;entryDx=0;entryDy=0;startArrow=diamondThin;startFill=1;startSize=10;endArrow=open;endFill=0;strokeColor=#457B9D;fillColor=#A8DADC;fontColor=#1D3557;" parent="W9zNpmpsUSwXFrq7iUbq-1" source="zOc-NiBwnLOCkY9RsDsh-2" target="zOc-NiBwnLOCkY9RsDsh-6" edge="1">
          <mxGeometry relative="1" as="geometry">
            <Array as="points">
              <mxPoint x="570" y="830" />
              <mxPoint x="440" y="830" />
            </Array>
          </mxGeometry>
        </mxCell>
        <mxCell id="zOc-NiBwnLOCkY9RsDsh-9" style="edgeStyle=orthogonalEdgeStyle;rounded=0;orthogonalLoop=1;jettySize=auto;html=1;exitX=0.75;exitY=0;exitDx=0;exitDy=0;entryX=0.5;entryY=1;entryDx=0;entryDy=0;endArrow=open;endFill=0;endSize=7;strokeColor=#457B9D;startArrow=diamondThin;startFill=1;startSize=10;" parent="W9zNpmpsUSwXFrq7iUbq-1" source="zOc-NiBwnLOCkY9RsDsh-2" target="zOc-NiBwnLOCkY9RsDsh-7" edge="1">
          <mxGeometry relative="1" as="geometry" />
        </mxCell>
        <mxCell id="bJ6GKk-2Yvtv8ZSUdYhM-1" style="edgeStyle=orthogonalEdgeStyle;rounded=0;orthogonalLoop=1;jettySize=auto;html=1;exitX=0.25;exitY=0;exitDx=0;exitDy=0;entryX=0.5;entryY=1;entryDx=0;entryDy=0;startArrow=diamondThin;startFill=0;startSize=10;endArrow=open;endFill=0;endSize=7;strokeColor=#457B9D;" parent="W9zNpmpsUSwXFrq7iUbq-1" source="zOc-NiBwnLOCkY9RsDsh-2" target="bJ6GKk-2Yvtv8ZSUdYhM-0" edge="1">
          <mxGeometry relative="1" as="geometry" />
        </mxCell>
        <mxCell id="sBohtreFbNVrc6cxWtL_-1" style="edgeStyle=orthogonalEdgeStyle;rounded=0;orthogonalLoop=1;jettySize=auto;html=1;entryX=0.5;entryY=0;entryDx=0;entryDy=0;startArrow=diamondThin;startFill=1;startSize=10;endArrow=open;endFill=0;endSize=7;strokeColor=#457B9D;exitX=0.75;exitY=1;exitDx=0;exitDy=0;" parent="W9zNpmpsUSwXFrq7iUbq-1" source="zOc-NiBwnLOCkY9RsDsh-2" target="sBohtreFbNVrc6cxWtL_-0" edge="1">
          <mxGeometry relative="1" as="geometry">
            <mxPoint x="640" y="800" as="sourcePoint" />
            <Array as="points">
              <mxPoint x="630" y="810" />
              <mxPoint x="750" y="810" />
            </Array>
          </mxGeometry>
        </mxCell>
        <mxCell id="zOc-NiBwnLOCkY9RsDsh-2" value="NioEndpoint" style="rounded=0;whiteSpace=wrap;html=1;sketch=0;strokeColor=#457B9D;fillColor=#A8DADC;fontColor=#1D3557;" parent="W9zNpmpsUSwXFrq7iUbq-1" vertex="1">
          <mxGeometry x="540" y="770" width="120" height="20" as="geometry" />
        </mxCell>
        <mxCell id="bJ6GKk-2Yvtv8ZSUdYhM-3" style="edgeStyle=orthogonalEdgeStyle;rounded=0;orthogonalLoop=1;jettySize=auto;html=1;exitX=0.75;exitY=0;exitDx=0;exitDy=0;dashed=1;startArrow=none;startFill=0;startSize=10;endArrow=open;endFill=0;endSize=7;strokeColor=#457B9D;entryX=0;entryY=0.5;entryDx=0;entryDy=0;" parent="W9zNpmpsUSwXFrq7iUbq-1" source="zOc-NiBwnLOCkY9RsDsh-4" target="sBohtreFbNVrc6cxWtL_-0" edge="1">
          <mxGeometry relative="1" as="geometry">
            <mxPoint x="625" y="1030" as="sourcePoint" />
            <mxPoint x="620" y="782" as="targetPoint" />
            <Array as="points">
              <mxPoint x="625" y="840" />
            </Array>
          </mxGeometry>
        </mxCell>
        <mxCell id="bJ6GKk-2Yvtv8ZSUdYhM-4" style="edgeStyle=orthogonalEdgeStyle;rounded=0;orthogonalLoop=1;jettySize=auto;html=1;exitX=0.25;exitY=0;exitDx=0;exitDy=0;entryX=0.5;entryY=1;entryDx=0;entryDy=0;startArrow=diamondThin;startFill=0;startSize=10;endArrow=open;endFill=0;endSize=7;strokeColor=#457B9D;" parent="W9zNpmpsUSwXFrq7iUbq-1" source="zOc-NiBwnLOCkY9RsDsh-4" target="zOc-NiBwnLOCkY9RsDsh-11" edge="1">
          <mxGeometry relative="1" as="geometry" />
        </mxCell>
        <mxCell id="zOc-NiBwnLOCkY9RsDsh-4" value="SocketProcessor" style="rounded=0;whiteSpace=wrap;html=1;sketch=0;strokeColor=#457B9D;fillColor=#A8DADC;fontColor=#1D3557;" parent="W9zNpmpsUSwXFrq7iUbq-1" vertex="1">
          <mxGeometry x="550" y="1050" width="100" height="20" as="geometry" />
        </mxCell>
        <mxCell id="zOc-NiBwnLOCkY9RsDsh-14" style="edgeStyle=orthogonalEdgeStyle;rounded=0;orthogonalLoop=1;jettySize=auto;html=1;exitX=0.25;exitY=1;exitDx=0;exitDy=0;entryX=0.5;entryY=0;entryDx=0;entryDy=0;startArrow=diamondThin;startFill=1;startSize=10;endArrow=open;endFill=0;endSize=7;strokeColor=#457B9D;" parent="W9zNpmpsUSwXFrq7iUbq-1" source="zOc-NiBwnLOCkY9RsDsh-6" target="zOc-NiBwnLOCkY9RsDsh-13" edge="1">
          <mxGeometry relative="1" as="geometry" />
        </mxCell>
        <mxCell id="zOc-NiBwnLOCkY9RsDsh-16" style="edgeStyle=orthogonalEdgeStyle;rounded=0;orthogonalLoop=1;jettySize=auto;html=1;exitX=0.75;exitY=1;exitDx=0;exitDy=0;entryX=0.5;entryY=0;entryDx=0;entryDy=0;startArrow=diamondThin;startFill=0;startSize=10;endArrow=open;endFill=0;endSize=7;strokeColor=#457B9D;" parent="W9zNpmpsUSwXFrq7iUbq-1" source="zOc-NiBwnLOCkY9RsDsh-6" target="zOc-NiBwnLOCkY9RsDsh-10" edge="1">
          <mxGeometry relative="1" as="geometry" />
        </mxCell>
        <mxCell id="exCsWl2KkklwqG-0HQd9-1" style="edgeStyle=orthogonalEdgeStyle;rounded=0;orthogonalLoop=1;jettySize=auto;html=1;exitX=1;exitY=0.5;exitDx=0;exitDy=0;entryX=0.37;entryY=0;entryDx=0;entryDy=0;entryPerimeter=0;startArrow=none;startFill=0;startSize=10;endArrow=open;endFill=0;endSize=7;strokeColor=#457B9D;dashed=1;" parent="W9zNpmpsUSwXFrq7iUbq-1" source="zOc-NiBwnLOCkY9RsDsh-6" target="zOc-NiBwnLOCkY9RsDsh-4" edge="1">
          <mxGeometry relative="1" as="geometry" />
        </mxCell>
        <mxCell id="zOc-NiBwnLOCkY9RsDsh-6" value="Poller" style="rounded=0;whiteSpace=wrap;html=1;sketch=0;strokeColor=#457B9D;fillColor=#A8DADC;fontColor=#1D3557;" parent="W9zNpmpsUSwXFrq7iUbq-1" vertex="1">
          <mxGeometry x="380" y="850" width="80" height="20" as="geometry" />
        </mxCell>
        <mxCell id="zOc-NiBwnLOCkY9RsDsh-7" value="ServerSocketChannel" style="rounded=0;whiteSpace=wrap;html=1;sketch=0;strokeColor=#457B9D;fillColor=#A8DADC;fontColor=#1D3557;" parent="W9zNpmpsUSwXFrq7iUbq-1" vertex="1">
          <mxGeometry x="630" y="710" width="120" height="20" as="geometry" />
        </mxCell>
        <mxCell id="zOc-NiBwnLOCkY9RsDsh-18" style="edgeStyle=orthogonalEdgeStyle;rounded=0;orthogonalLoop=1;jettySize=auto;html=1;exitX=0.25;exitY=1;exitDx=0;exitDy=0;entryX=0.5;entryY=0;entryDx=0;entryDy=0;startArrow=diamondThin;startFill=0;startSize=10;endArrow=open;endFill=0;endSize=7;strokeColor=#457B9D;" parent="W9zNpmpsUSwXFrq7iUbq-1" source="zOc-NiBwnLOCkY9RsDsh-10" target="zOc-NiBwnLOCkY9RsDsh-11" edge="1">
          <mxGeometry relative="1" as="geometry" />
        </mxCell>
        <mxCell id="zOc-NiBwnLOCkY9RsDsh-19" style="edgeStyle=orthogonalEdgeStyle;rounded=0;orthogonalLoop=1;jettySize=auto;html=1;exitX=0.75;exitY=1;exitDx=0;exitDy=0;entryX=0.5;entryY=0;entryDx=0;entryDy=0;startArrow=diamondThin;startFill=1;startSize=10;endArrow=open;endFill=0;endSize=7;strokeColor=#457B9D;" parent="W9zNpmpsUSwXFrq7iUbq-1" source="zOc-NiBwnLOCkY9RsDsh-10" target="zOc-NiBwnLOCkY9RsDsh-12" edge="1">
          <mxGeometry relative="1" as="geometry" />
        </mxCell>
        <mxCell id="zOc-NiBwnLOCkY9RsDsh-10" value="PollerEvent" style="rounded=0;whiteSpace=wrap;html=1;sketch=0;strokeColor=#457B9D;fillColor=#A8DADC;fontColor=#1D3557;" parent="W9zNpmpsUSwXFrq7iUbq-1" vertex="1">
          <mxGeometry x="400" y="910" width="80" height="20" as="geometry" />
        </mxCell>
        <mxCell id="zOc-NiBwnLOCkY9RsDsh-23" style="edgeStyle=orthogonalEdgeStyle;rounded=0;orthogonalLoop=1;jettySize=auto;html=1;exitX=1;exitY=0.25;exitDx=0;exitDy=0;entryX=0;entryY=0.25;entryDx=0;entryDy=0;startArrow=diamondThin;startFill=0;startSize=10;endArrow=open;endFill=0;endSize=7;strokeColor=#457B9D;" parent="W9zNpmpsUSwXFrq7iUbq-1" source="zOc-NiBwnLOCkY9RsDsh-11" target="zOc-NiBwnLOCkY9RsDsh-12" edge="1">
          <mxGeometry relative="1" as="geometry" />
        </mxCell>
        <mxCell id="zOc-NiBwnLOCkY9RsDsh-25" style="edgeStyle=orthogonalEdgeStyle;rounded=0;orthogonalLoop=1;jettySize=auto;html=1;exitX=0.25;exitY=0;exitDx=0;exitDy=0;entryX=0;entryY=0.5;entryDx=0;entryDy=0;startArrow=diamondThin;startFill=0;startSize=10;endArrow=open;endFill=0;endSize=7;strokeColor=#457B9D;" parent="W9zNpmpsUSwXFrq7iUbq-1" source="zOc-NiBwnLOCkY9RsDsh-11" target="zOc-NiBwnLOCkY9RsDsh-2" edge="1">
          <mxGeometry relative="1" as="geometry" />
        </mxCell>
        <mxCell id="zOc-NiBwnLOCkY9RsDsh-11" value="NioSocketWrapper" style="rounded=0;whiteSpace=wrap;html=1;sketch=0;strokeColor=#457B9D;fillColor=#A8DADC;fontColor=#1D3557;" parent="W9zNpmpsUSwXFrq7iUbq-1" vertex="1">
          <mxGeometry x="240" y="990" width="120" height="20" as="geometry" />
        </mxCell>
        <mxCell id="zOc-NiBwnLOCkY9RsDsh-22" style="edgeStyle=orthogonalEdgeStyle;rounded=0;orthogonalLoop=1;jettySize=auto;html=1;exitX=0.75;exitY=0;exitDx=0;exitDy=0;startArrow=diamondThin;startFill=0;startSize=10;endArrow=open;endFill=0;endSize=7;strokeColor=#457B9D;" parent="W9zNpmpsUSwXFrq7iUbq-1" source="zOc-NiBwnLOCkY9RsDsh-12" edge="1">
          <mxGeometry relative="1" as="geometry">
            <mxPoint x="452" y="870" as="targetPoint" />
            <Array as="points">
              <mxPoint x="520" y="890" />
              <mxPoint x="452" y="890" />
            </Array>
          </mxGeometry>
        </mxCell>
        <mxCell id="zOc-NiBwnLOCkY9RsDsh-24" style="edgeStyle=orthogonalEdgeStyle;rounded=0;orthogonalLoop=1;jettySize=auto;html=1;exitX=0;exitY=0.75;exitDx=0;exitDy=0;entryX=1;entryY=0.75;entryDx=0;entryDy=0;startArrow=diamondThin;startFill=0;startSize=10;endArrow=open;endFill=0;endSize=7;strokeColor=#457B9D;" parent="W9zNpmpsUSwXFrq7iUbq-1" source="zOc-NiBwnLOCkY9RsDsh-12" target="zOc-NiBwnLOCkY9RsDsh-11" edge="1">
          <mxGeometry relative="1" as="geometry" />
        </mxCell>
        <mxCell id="zOc-NiBwnLOCkY9RsDsh-12" value="NioChannel" style="rounded=0;whiteSpace=wrap;html=1;sketch=0;strokeColor=#457B9D;fillColor=#A8DADC;fontColor=#1D3557;" parent="W9zNpmpsUSwXFrq7iUbq-1" vertex="1">
          <mxGeometry x="460" y="990" width="80" height="20" as="geometry" />
        </mxCell>
        <mxCell id="zOc-NiBwnLOCkY9RsDsh-13" value="Selector" style="rounded=0;whiteSpace=wrap;html=1;sketch=0;strokeColor=#457B9D;fillColor=#A8DADC;fontColor=#1D3557;" parent="W9zNpmpsUSwXFrq7iUbq-1" vertex="1">
          <mxGeometry x="320" y="910" width="60" height="20" as="geometry" />
        </mxCell>
        <mxCell id="bJ6GKk-2Yvtv8ZSUdYhM-2" style="edgeStyle=orthogonalEdgeStyle;rounded=0;orthogonalLoop=1;jettySize=auto;html=1;exitX=0;exitY=0.5;exitDx=0;exitDy=0;entryX=0.25;entryY=0;entryDx=0;entryDy=0;startArrow=none;startFill=0;startSize=10;endArrow=open;endFill=0;endSize=7;strokeColor=#457B9D;dashed=1;" parent="W9zNpmpsUSwXFrq7iUbq-1" source="bJ6GKk-2Yvtv8ZSUdYhM-0" target="zOc-NiBwnLOCkY9RsDsh-6" edge="1">
          <mxGeometry relative="1" as="geometry">
            <Array as="points">
              <mxPoint x="400" y="720" />
            </Array>
          </mxGeometry>
        </mxCell>
        <mxCell id="bJ6GKk-2Yvtv8ZSUdYhM-0" value="Acceptor" style="rounded=0;whiteSpace=wrap;html=1;sketch=0;strokeColor=#457B9D;fillColor=#A8DADC;fontColor=#1D3557;" parent="W9zNpmpsUSwXFrq7iUbq-1" vertex="1">
          <mxGeometry x="530" y="710" width="80" height="20" as="geometry" />
        </mxCell>
        <mxCell id="ClaWzqSBif7tNI12gKCK-2" style="edgeStyle=orthogonalEdgeStyle;rounded=0;orthogonalLoop=1;jettySize=auto;html=1;exitX=0.25;exitY=1;exitDx=0;exitDy=0;entryX=0.5;entryY=0;entryDx=0;entryDy=0;startArrow=diamondThin;startFill=1;startSize=10;endArrow=open;endFill=0;endSize=7;strokeColor=#457B9D;" parent="W9zNpmpsUSwXFrq7iUbq-1" source="sBohtreFbNVrc6cxWtL_-0" target="ClaWzqSBif7tNI12gKCK-0" edge="1">
          <mxGeometry relative="1" as="geometry" />
        </mxCell>
        <mxCell id="ClaWzqSBif7tNI12gKCK-3" style="edgeStyle=orthogonalEdgeStyle;rounded=0;orthogonalLoop=1;jettySize=auto;html=1;exitX=0.75;exitY=1;exitDx=0;exitDy=0;entryX=0.5;entryY=0;entryDx=0;entryDy=0;startArrow=diamondThin;startFill=1;startSize=10;endArrow=open;endFill=0;endSize=7;strokeColor=#457B9D;" parent="W9zNpmpsUSwXFrq7iUbq-1" source="sBohtreFbNVrc6cxWtL_-0" target="ClaWzqSBif7tNI12gKCK-1" edge="1">
          <mxGeometry relative="1" as="geometry" />
        </mxCell>
        <mxCell id="sBohtreFbNVrc6cxWtL_-0" value="ConnectionHandler" style="rounded=0;whiteSpace=wrap;html=1;sketch=0;strokeColor=#457B9D;fillColor=#A8DADC;fontColor=#1D3557;" parent="W9zNpmpsUSwXFrq7iUbq-1" vertex="1">
          <mxGeometry x="690" y="830" width="120" height="20" as="geometry" />
        </mxCell>
        <mxCell id="ClaWzqSBif7tNI12gKCK-0" value="AbstractProtocol" style="rounded=0;whiteSpace=wrap;html=1;sketch=0;strokeColor=#457B9D;fillColor=#A8DADC;fontColor=#1D3557;" parent="W9zNpmpsUSwXFrq7iUbq-1" vertex="1">
          <mxGeometry x="640" y="890" width="100" height="20" as="geometry" />
        </mxCell>
        <mxCell id="ClaWzqSBif7tNI12gKCK-1" value="Processor" style="rounded=0;whiteSpace=wrap;html=1;sketch=0;strokeColor=#457B9D;fontColor=#1D3557;fillColor=#97D077;" parent="W9zNpmpsUSwXFrq7iUbq-1" vertex="1">
          <mxGeometry x="770" y="890" width="80" height="20" as="geometry" />
        </mxCell>
        <mxCell id="exCsWl2KkklwqG-0HQd9-4" style="edgeStyle=orthogonalEdgeStyle;rounded=0;orthogonalLoop=1;jettySize=auto;html=1;exitX=0.5;exitY=0;exitDx=0;exitDy=0;entryX=0.5;entryY=1;entryDx=0;entryDy=0;startArrow=none;startFill=0;startSize=10;endArrow=block;endFill=0;endSize=7;strokeColor=#457B9D;" parent="W9zNpmpsUSwXFrq7iUbq-1" source="3hh-Ka-ZcsEhFyzjKL_k-0" target="exCsWl2KkklwqG-0HQd9-2" edge="1">
          <mxGeometry relative="1" as="geometry">
            <Array as="points">
              <mxPoint x="810" y="990" />
            </Array>
          </mxGeometry>
        </mxCell>
        <mxCell id="3hh-Ka-ZcsEhFyzjKL_k-0" value="Http11Processor" style="rounded=0;whiteSpace=wrap;html=1;sketch=0;strokeColor=#457B9D;fillColor=#A8DADC;fontColor=#1D3557;" parent="W9zNpmpsUSwXFrq7iUbq-1" vertex="1">
          <mxGeometry x="760" y="1000" width="100" height="20" as="geometry" />
        </mxCell>
        <mxCell id="exCsWl2KkklwqG-0HQd9-3" style="edgeStyle=orthogonalEdgeStyle;rounded=0;orthogonalLoop=1;jettySize=auto;html=1;exitX=0.5;exitY=0;exitDx=0;exitDy=0;entryX=0.5;entryY=1;entryDx=0;entryDy=0;dashed=1;startArrow=none;startFill=0;startSize=10;endArrow=block;endFill=0;endSize=7;strokeColor=#457B9D;" parent="W9zNpmpsUSwXFrq7iUbq-1" source="exCsWl2KkklwqG-0HQd9-2" target="ClaWzqSBif7tNI12gKCK-1" edge="1">
          <mxGeometry relative="1" as="geometry" />
        </mxCell>
        <mxCell id="3u1nxmrcOukRHcQqH6U1-1" style="edgeStyle=orthogonalEdgeStyle;rounded=0;orthogonalLoop=1;jettySize=auto;html=1;exitX=0.25;exitY=1;exitDx=0;exitDy=0;entryX=0.5;entryY=0;entryDx=0;entryDy=0;startArrow=diamondThin;startFill=1;startSize=10;endArrow=open;endFill=0;endSize=7;strokeColor=#457B9D;" parent="W9zNpmpsUSwXFrq7iUbq-1" source="exCsWl2KkklwqG-0HQd9-2" target="3u1nxmrcOukRHcQqH6U1-0" edge="1">
          <mxGeometry relative="1" as="geometry">
            <Array as="points" />
          </mxGeometry>
        </mxCell>
        <mxCell id="exCsWl2KkklwqG-0HQd9-2" value="AbstractProcessor" style="rounded=0;whiteSpace=wrap;html=1;sketch=0;strokeColor=#457B9D;fillColor=#A8DADC;fontColor=#1D3557;" parent="W9zNpmpsUSwXFrq7iUbq-1" vertex="1">
          <mxGeometry x="750" y="940" width="120" height="20" as="geometry" />
        </mxCell>
        <mxCell id="3u1nxmrcOukRHcQqH6U1-0" value="Adapter" style="rounded=0;whiteSpace=wrap;html=1;sketch=0;strokeColor=#457B9D;fontColor=#1D3557;fillColor=#97D077;" parent="W9zNpmpsUSwXFrq7iUbq-1" vertex="1">
          <mxGeometry x="687.5" y="1000" width="60" height="20" as="geometry" />
        </mxCell>
        <mxCell id="gP1iJ99W--FfETT6m1T2-0" style="edgeStyle=orthogonalEdgeStyle;rounded=0;orthogonalLoop=1;jettySize=auto;html=1;exitX=0.5;exitY=0;exitDx=0;exitDy=0;entryX=0.5;entryY=1;entryDx=0;entryDy=0;startArrow=none;startFill=0;startSize=10;endArrow=block;endFill=0;endSize=7;strokeColor=#457B9D;dashed=1;" parent="W9zNpmpsUSwXFrq7iUbq-1" source="gndkaN6OzBfQ7psjresH-0" target="3u1nxmrcOukRHcQqH6U1-0" edge="1">
          <mxGeometry relative="1" as="geometry" />
        </mxCell>
        <mxCell id="gP1iJ99W--FfETT6m1T2-6" style="edgeStyle=orthogonalEdgeStyle;rounded=0;orthogonalLoop=1;jettySize=auto;html=1;exitX=1;exitY=0.5;exitDx=0;exitDy=0;entryX=0;entryY=0.5;entryDx=0;entryDy=0;startArrow=diamondThin;startFill=1;startSize=10;endArrow=open;endFill=0;endSize=7;strokeColor=#457B9D;" parent="W9zNpmpsUSwXFrq7iUbq-1" source="gndkaN6OzBfQ7psjresH-0" target="gP1iJ99W--FfETT6m1T2-3" edge="1">
          <mxGeometry relative="1" as="geometry" />
        </mxCell>
        <mxCell id="gndkaN6OzBfQ7psjresH-0" value="CoyoteAdapter" style="rounded=0;whiteSpace=wrap;html=1;sketch=0;strokeColor=#457B9D;fillColor=#A8DADC;fontColor=#1D3557;" parent="W9zNpmpsUSwXFrq7iUbq-1" vertex="1">
          <mxGeometry x="675" y="1050" width="85" height="20" as="geometry" />
        </mxCell>
        <mxCell id="l5pVDytUrsDA2l9Rdfmx-0" style="edgeStyle=orthogonalEdgeStyle;rounded=0;orthogonalLoop=1;jettySize=auto;html=1;exitX=1;exitY=0.5;exitDx=0;exitDy=0;startArrow=diamondThin;startFill=1;startSize=10;endArrow=open;endFill=0;endSize=7;strokeColor=#457B9D;" parent="W9zNpmpsUSwXFrq7iUbq-1" source="gP1iJ99W--FfETT6m1T2-1" target="gP1iJ99W--FfETT6m1T2-4" edge="1">
          <mxGeometry relative="1" as="geometry" />
        </mxCell>
        <mxCell id="gP1iJ99W--FfETT6m1T2-1" value="Service" style="rounded=0;whiteSpace=wrap;html=1;sketch=0;strokeColor=#457B9D;fontColor=#1D3557;fillColor=#97D077;" parent="W9zNpmpsUSwXFrq7iUbq-1" vertex="1">
          <mxGeometry x="900" y="1050" width="60" height="20" as="geometry" />
        </mxCell>
        <mxCell id="gP1iJ99W--FfETT6m1T2-7" style="edgeStyle=orthogonalEdgeStyle;rounded=0;orthogonalLoop=1;jettySize=auto;html=1;exitX=1;exitY=0.5;exitDx=0;exitDy=0;entryX=0;entryY=0.5;entryDx=0;entryDy=0;startArrow=diamondThin;startFill=1;startSize=10;endArrow=open;endFill=0;endSize=7;strokeColor=#457B9D;" parent="W9zNpmpsUSwXFrq7iUbq-1" source="gP1iJ99W--FfETT6m1T2-3" target="gP1iJ99W--FfETT6m1T2-1" edge="1">
          <mxGeometry relative="1" as="geometry" />
        </mxCell>
        <mxCell id="gP1iJ99W--FfETT6m1T2-3" value="Connector" style="rounded=0;whiteSpace=wrap;html=1;sketch=0;strokeColor=#457B9D;fillColor=#A8DADC;fontColor=#1D3557;" parent="W9zNpmpsUSwXFrq7iUbq-1" vertex="1">
          <mxGeometry x="800" y="1050" width="60" height="20" as="geometry" />
        </mxCell>
        <mxCell id="gP1iJ99W--FfETT6m1T2-4" value="&lt;span&gt;Container&lt;/span&gt;" style="rounded=0;whiteSpace=wrap;html=1;sketch=0;strokeColor=#457B9D;fontColor=#1D3557;fillColor=#97D077;" parent="W9zNpmpsUSwXFrq7iUbq-1" vertex="1">
          <mxGeometry x="1000" y="1050" width="60" height="20" as="geometry" />
        </mxCell>
      </root>
    </mxGraphModel>
  </diagram>
  <diagram id="UwgnWcpubtfnPHXoz1m1" name="第 3 页">
    <mxGraphModel dx="984" dy="659" grid="0" gridSize="10" guides="1" tooltips="1" connect="1" arrows="1" fold="1" page="1" pageScale="1" pageWidth="3300" pageHeight="4681" background="none" math="0" shadow="0">
      <root>
        <mxCell id="ZsEFagKEa_Futw5ynS_p-0" />
        <mxCell id="ZsEFagKEa_Futw5ynS_p-1" parent="ZsEFagKEa_Futw5ynS_p-0" />
        <mxCell id="TU0emrlXKV-2zq9Vhi45-0" value="" style="endArrow=classic;html=1;strokeColor=#457B9D;fillColor=#A8DADC;fontColor=#1D3557;rounded=0;entryX=1.1;entryY=0.625;entryDx=0;entryDy=0;entryPerimeter=0;" parent="ZsEFagKEa_Futw5ynS_p-1" edge="1">
          <mxGeometry width="50" height="50" relative="1" as="geometry">
            <mxPoint x="640" y="1100" as="sourcePoint" />
            <mxPoint x="646" y="1210" as="targetPoint" />
            <Array as="points">
              <mxPoint x="660" y="1100" />
              <mxPoint x="660" y="1210" />
            </Array>
          </mxGeometry>
        </mxCell>
        <mxCell id="TU0emrlXKV-2zq9Vhi45-1" value="" style="endArrow=classic;html=1;strokeColor=#457B9D;fillColor=#A8DADC;fontColor=#1D3557;rounded=0;entryX=1.1;entryY=0.625;entryDx=0;entryDy=0;entryPerimeter=0;" parent="ZsEFagKEa_Futw5ynS_p-1" edge="1">
          <mxGeometry width="50" height="50" relative="1" as="geometry">
            <mxPoint x="640" y="1040" as="sourcePoint" />
            <mxPoint x="646" y="1060" as="targetPoint" />
            <Array as="points">
              <mxPoint x="660" y="1040" />
              <mxPoint x="660" y="1060" />
            </Array>
          </mxGeometry>
        </mxCell>
        <mxCell id="TU0emrlXKV-2zq9Vhi45-2" value="" style="endArrow=classic;html=1;strokeColor=#457B9D;fillColor=#A8DADC;fontColor=#1D3557;rounded=0;entryX=1.1;entryY=0.625;entryDx=0;entryDy=0;entryPerimeter=0;" parent="ZsEFagKEa_Futw5ynS_p-1" edge="1">
          <mxGeometry width="50" height="50" relative="1" as="geometry">
            <mxPoint x="640" y="930" as="sourcePoint" />
            <mxPoint x="646" y="950" as="targetPoint" />
            <Array as="points">
              <mxPoint x="660" y="930" />
              <mxPoint x="660" y="950" />
            </Array>
          </mxGeometry>
        </mxCell>
        <mxCell id="TU0emrlXKV-2zq9Vhi45-3" value="" style="endArrow=classic;html=1;strokeColor=#457B9D;fillColor=#A8DADC;fontColor=#1D3557;rounded=0;entryX=1.1;entryY=0.625;entryDx=0;entryDy=0;entryPerimeter=0;" parent="ZsEFagKEa_Futw5ynS_p-1" edge="1">
          <mxGeometry width="50" height="50" relative="1" as="geometry">
            <mxPoint x="640" y="900" as="sourcePoint" />
            <mxPoint x="646" y="920" as="targetPoint" />
            <Array as="points">
              <mxPoint x="660" y="900" />
              <mxPoint x="660" y="920" />
            </Array>
          </mxGeometry>
        </mxCell>
        <mxCell id="TU0emrlXKV-2zq9Vhi45-4" value="" style="endArrow=classic;html=1;strokeColor=#457B9D;fillColor=#A8DADC;fontColor=#1D3557;rounded=0;entryX=1.1;entryY=0.625;entryDx=0;entryDy=0;entryPerimeter=0;" parent="ZsEFagKEa_Futw5ynS_p-1" edge="1">
          <mxGeometry width="50" height="50" relative="1" as="geometry">
            <mxPoint x="400" y="810" as="sourcePoint" />
            <mxPoint x="406" y="830" as="targetPoint" />
            <Array as="points">
              <mxPoint x="420" y="810" />
              <mxPoint x="420" y="830" />
            </Array>
          </mxGeometry>
        </mxCell>
        <mxCell id="TU0emrlXKV-2zq9Vhi45-5" value="" style="endArrow=classic;html=1;strokeColor=#457B9D;fillColor=#A8DADC;fontColor=#1D3557;rounded=0;entryX=1.1;entryY=0.625;entryDx=0;entryDy=0;entryPerimeter=0;" parent="ZsEFagKEa_Futw5ynS_p-1" edge="1">
          <mxGeometry width="50" height="50" relative="1" as="geometry">
            <mxPoint x="400" y="780" as="sourcePoint" />
            <mxPoint x="406" y="800" as="targetPoint" />
            <Array as="points">
              <mxPoint x="420" y="780" />
              <mxPoint x="420" y="800" />
            </Array>
          </mxGeometry>
        </mxCell>
        <mxCell id="TU0emrlXKV-2zq9Vhi45-6" value="" style="endArrow=classic;html=1;strokeColor=#457B9D;fillColor=#A8DADC;fontColor=#1D3557;rounded=0;entryX=1.1;entryY=0.625;entryDx=0;entryDy=0;entryPerimeter=0;" parent="ZsEFagKEa_Futw5ynS_p-1" edge="1">
          <mxGeometry width="50" height="50" relative="1" as="geometry">
            <mxPoint x="640" y="870" as="sourcePoint" />
            <mxPoint x="646" y="890" as="targetPoint" />
            <Array as="points">
              <mxPoint x="660" y="870" />
              <mxPoint x="660" y="890" />
            </Array>
          </mxGeometry>
        </mxCell>
        <mxCell id="TU0emrlXKV-2zq9Vhi45-7" value="NioEndpoint" style="shape=umlLifeline;perimeter=lifelinePerimeter;whiteSpace=wrap;html=1;container=1;collapsible=0;recursiveResize=0;outlineConnect=0;rounded=0;sketch=0;strokeColor=#457B9D;fillColor=#A8DADC;fontColor=#1D3557;size=20;" parent="ZsEFagKEa_Futw5ynS_p-1" vertex="1">
          <mxGeometry x="360" y="540" width="80" height="700" as="geometry" />
        </mxCell>
        <mxCell id="TU0emrlXKV-2zq9Vhi45-8" value="" style="html=1;points=[];perimeter=orthogonalPerimeter;rounded=0;sketch=0;strokeColor=#457B9D;fontColor=#1D3557;fillColor=#808080;" parent="TU0emrlXKV-2zq9Vhi45-7" vertex="1">
          <mxGeometry x="35" y="40" width="10" height="90" as="geometry" />
        </mxCell>
        <mxCell id="TU0emrlXKV-2zq9Vhi45-9" value="Acceptor" style="shape=umlLifeline;perimeter=lifelinePerimeter;whiteSpace=wrap;html=1;container=1;collapsible=0;recursiveResize=0;outlineConnect=0;rounded=0;sketch=0;strokeColor=#457B9D;fillColor=#A8DADC;fontColor=#1D3557;size=20;" parent="ZsEFagKEa_Futw5ynS_p-1" vertex="1">
          <mxGeometry x="840" y="540" width="80" height="700" as="geometry" />
        </mxCell>
        <mxCell id="TU0emrlXKV-2zq9Vhi45-10" value="" style="html=1;points=[];perimeter=orthogonalPerimeter;rounded=0;sketch=0;strokeColor=#457B9D;fontColor=#1D3557;fillColor=#808080;" parent="TU0emrlXKV-2zq9Vhi45-9" vertex="1">
          <mxGeometry x="35" y="100" width="10" height="30" as="geometry" />
        </mxCell>
        <mxCell id="TU0emrlXKV-2zq9Vhi45-11" value="" style="html=1;points=[];perimeter=orthogonalPerimeter;rounded=0;sketch=0;strokeColor=#457B9D;fillColor=#A8DADC;fontColor=#1D3557;" parent="TU0emrlXKV-2zq9Vhi45-9" vertex="1">
          <mxGeometry x="35" y="160" width="10" height="300" as="geometry" />
        </mxCell>
        <mxCell id="TU0emrlXKV-2zq9Vhi45-12" value="Poller" style="shape=umlLifeline;perimeter=lifelinePerimeter;whiteSpace=wrap;html=1;container=1;collapsible=0;recursiveResize=0;outlineConnect=0;rounded=0;sketch=0;strokeColor=#457B9D;fillColor=#A8DADC;fontColor=#1D3557;size=20;" parent="ZsEFagKEa_Futw5ynS_p-1" vertex="1">
          <mxGeometry x="600" y="540" width="80" height="700" as="geometry" />
        </mxCell>
        <mxCell id="TU0emrlXKV-2zq9Vhi45-13" value="" style="html=1;points=[];perimeter=orthogonalPerimeter;rounded=0;sketch=0;strokeColor=#457B9D;fontColor=#1D3557;fillColor=#808080;" parent="TU0emrlXKV-2zq9Vhi45-12" vertex="1">
          <mxGeometry x="35" y="60" width="10" height="30" as="geometry" />
        </mxCell>
        <mxCell id="TU0emrlXKV-2zq9Vhi45-14" value="" style="html=1;points=[];perimeter=orthogonalPerimeter;rounded=0;sketch=0;strokeColor=#457B9D;fillColor=#A8DADC;fontColor=#1D3557;" parent="TU0emrlXKV-2zq9Vhi45-12" vertex="1">
          <mxGeometry x="35" y="310" width="10" height="130" as="geometry" />
        </mxCell>
        <mxCell id="TU0emrlXKV-2zq9Vhi45-15" value="" style="html=1;points=[];perimeter=orthogonalPerimeter;rounded=0;sketch=0;strokeColor=#457B9D;fillColor=#A8DADC;fontColor=#1D3557;" parent="TU0emrlXKV-2zq9Vhi45-12" vertex="1">
          <mxGeometry x="35" y="490" width="10" height="200" as="geometry" />
        </mxCell>
        <mxCell id="TU0emrlXKV-2zq9Vhi45-16" value="" style="endArrow=classic;html=1;fillColor=#A8DADC;fontColor=#1D3557;strokeColor=#808080;" parent="ZsEFagKEa_Futw5ynS_p-1" edge="1">
          <mxGeometry width="50" height="50" relative="1" as="geometry">
            <mxPoint x="310" y="600" as="sourcePoint" />
            <mxPoint x="390" y="600" as="targetPoint" />
          </mxGeometry>
        </mxCell>
        <mxCell id="TU0emrlXKV-2zq9Vhi45-17" value="startInternal()" style="text;html=1;resizable=0;autosize=1;align=center;verticalAlign=middle;points=[];fillColor=none;strokeColor=none;rounded=0;sketch=0;fontColor=#1D3557;" parent="ZsEFagKEa_Futw5ynS_p-1" vertex="1">
          <mxGeometry x="300" y="580" width="90" height="20" as="geometry" />
        </mxCell>
        <mxCell id="TU0emrlXKV-2zq9Vhi45-18" value="" style="endArrow=classic;html=1;fillColor=#A8DADC;fontColor=#1D3557;strokeColor=#808080;" parent="ZsEFagKEa_Futw5ynS_p-1" edge="1">
          <mxGeometry width="50" height="50" relative="1" as="geometry">
            <mxPoint x="410" y="650" as="sourcePoint" />
            <mxPoint x="870" y="650" as="targetPoint" />
          </mxGeometry>
        </mxCell>
        <mxCell id="TU0emrlXKV-2zq9Vhi45-19" value="" style="endArrow=classic;html=1;fillColor=#A8DADC;fontColor=#1D3557;strokeColor=#808080;" parent="ZsEFagKEa_Futw5ynS_p-1" edge="1">
          <mxGeometry width="50" height="50" relative="1" as="geometry">
            <mxPoint x="410" y="610" as="sourcePoint" />
            <mxPoint x="630" y="610" as="targetPoint" />
          </mxGeometry>
        </mxCell>
        <mxCell id="TU0emrlXKV-2zq9Vhi45-20" value="start()" style="text;html=1;resizable=0;autosize=1;align=center;verticalAlign=middle;points=[];fillColor=none;strokeColor=none;rounded=0;sketch=0;fontColor=#1D3557;" parent="ZsEFagKEa_Futw5ynS_p-1" vertex="1">
          <mxGeometry x="470" y="590" width="50" height="20" as="geometry" />
        </mxCell>
        <mxCell id="TU0emrlXKV-2zq9Vhi45-21" value="" style="endArrow=none;html=1;fillColor=#A8DADC;fontColor=#1D3557;startArrow=classic;startFill=1;endFill=0;strokeColor=#808080;" parent="ZsEFagKEa_Futw5ynS_p-1" edge="1">
          <mxGeometry width="50" height="50" relative="1" as="geometry">
            <mxPoint x="410" y="620" as="sourcePoint" />
            <mxPoint x="630" y="620" as="targetPoint" />
          </mxGeometry>
        </mxCell>
        <mxCell id="TU0emrlXKV-2zq9Vhi45-22" value="" style="endArrow=none;html=1;fillColor=#A8DADC;fontColor=#1D3557;startArrow=classic;startFill=1;endFill=0;strokeColor=#808080;" parent="ZsEFagKEa_Futw5ynS_p-1" edge="1">
          <mxGeometry width="50" height="50" relative="1" as="geometry">
            <mxPoint x="410" y="660" as="sourcePoint" />
            <mxPoint x="870" y="660" as="targetPoint" />
          </mxGeometry>
        </mxCell>
        <mxCell id="TU0emrlXKV-2zq9Vhi45-23" value="start()" style="text;html=1;resizable=0;autosize=1;align=center;verticalAlign=middle;points=[];fillColor=none;strokeColor=none;rounded=0;sketch=0;fontColor=#1D3557;" parent="ZsEFagKEa_Futw5ynS_p-1" vertex="1">
          <mxGeometry x="470" y="630" width="50" height="20" as="geometry" />
        </mxCell>
        <mxCell id="TU0emrlXKV-2zq9Vhi45-24" value="" style="endArrow=none;dashed=1;html=1;fillColor=#A8DADC;fontColor=#1D3557;strokeColor=#808080;" parent="ZsEFagKEa_Futw5ynS_p-1" edge="1">
          <mxGeometry width="50" height="50" relative="1" as="geometry">
            <mxPoint x="360" y="680" as="sourcePoint" />
            <mxPoint x="920" y="680" as="targetPoint" />
          </mxGeometry>
        </mxCell>
        <mxCell id="TU0emrlXKV-2zq9Vhi45-25" value="" style="html=1;points=[];perimeter=orthogonalPerimeter;rounded=0;sketch=0;strokeColor=#457B9D;fillColor=#A8DADC;fontColor=#1D3557;" parent="ZsEFagKEa_Futw5ynS_p-1" vertex="1">
          <mxGeometry x="395" y="700" width="10" height="300" as="geometry" />
        </mxCell>
        <mxCell id="TU0emrlXKV-2zq9Vhi45-26" value="" style="endArrow=none;html=1;strokeColor=#457B9D;fillColor=#A8DADC;fontColor=#1D3557;startArrow=classic;startFill=1;endFill=0;" parent="ZsEFagKEa_Futw5ynS_p-1" edge="1">
          <mxGeometry width="50" height="50" relative="1" as="geometry">
            <mxPoint x="410" y="720" as="sourcePoint" />
            <mxPoint x="870" y="720" as="targetPoint" />
          </mxGeometry>
        </mxCell>
        <mxCell id="TU0emrlXKV-2zq9Vhi45-27" value="&lt;font color=&quot;#ff3333&quot;&gt;&lt;span&gt;ServerSocketChannel&lt;/span&gt;.accept()&lt;/font&gt;" style="text;html=1;resizable=0;autosize=1;align=center;verticalAlign=middle;points=[];fillColor=none;strokeColor=none;rounded=0;sketch=0;fontColor=#1D3557;" parent="ZsEFagKEa_Futw5ynS_p-1" vertex="1">
          <mxGeometry x="440" y="700" width="180" height="20" as="geometry" />
        </mxCell>
        <mxCell id="TU0emrlXKV-2zq9Vhi45-28" value="" style="endArrow=classic;html=1;strokeColor=#457B9D;fillColor=#A8DADC;fontColor=#1D3557;startArrow=none;startFill=0;endFill=1;" parent="ZsEFagKEa_Futw5ynS_p-1" edge="1">
          <mxGeometry width="50" height="50" relative="1" as="geometry">
            <mxPoint x="410" y="730" as="sourcePoint" />
            <mxPoint x="870" y="730" as="targetPoint" />
          </mxGeometry>
        </mxCell>
        <mxCell id="TU0emrlXKV-2zq9Vhi45-29" value="" style="endArrow=none;html=1;strokeColor=#457B9D;fillColor=#A8DADC;fontColor=#1D3557;startArrow=classic;startFill=1;endFill=0;" parent="ZsEFagKEa_Futw5ynS_p-1" edge="1">
          <mxGeometry width="50" height="50" relative="1" as="geometry">
            <mxPoint x="410" y="760" as="sourcePoint" />
            <mxPoint x="870" y="760" as="targetPoint" />
          </mxGeometry>
        </mxCell>
        <mxCell id="TU0emrlXKV-2zq9Vhi45-30" value="&lt;font color=&quot;#ff3333&quot;&gt;events.offer(pollerEvent)&lt;/font&gt;" style="text;html=1;resizable=0;autosize=1;align=center;verticalAlign=middle;points=[];fillColor=none;strokeColor=none;rounded=0;sketch=0;fontColor=#1D3557;" parent="ZsEFagKEa_Futw5ynS_p-1" vertex="1">
          <mxGeometry x="660" y="930" width="150" height="20" as="geometry" />
        </mxCell>
        <mxCell id="TU0emrlXKV-2zq9Vhi45-31" value="new NioChannel(socketChannel, bufhandler)" style="text;html=1;resizable=0;autosize=1;align=center;verticalAlign=middle;points=[];fillColor=none;strokeColor=none;rounded=0;sketch=0;fontColor=#1D3557;" parent="ZsEFagKEa_Futw5ynS_p-1" vertex="1">
          <mxGeometry x="420" y="780" width="250" height="20" as="geometry" />
        </mxCell>
        <mxCell id="TU0emrlXKV-2zq9Vhi45-32" value="getPoller()" style="text;html=1;resizable=0;autosize=1;align=center;verticalAlign=middle;points=[];fillColor=none;strokeColor=none;rounded=0;sketch=0;fontColor=#1D3557;" parent="ZsEFagKEa_Futw5ynS_p-1" vertex="1">
          <mxGeometry x="420" y="810" width="70" height="20" as="geometry" />
        </mxCell>
        <mxCell id="TU0emrlXKV-2zq9Vhi45-33" value="" style="endArrow=classic;html=1;strokeColor=#457B9D;fillColor=#A8DADC;fontColor=#1D3557;" parent="ZsEFagKEa_Futw5ynS_p-1" edge="1">
          <mxGeometry width="50" height="50" relative="1" as="geometry">
            <mxPoint x="410" y="860" as="sourcePoint" />
            <mxPoint x="630" y="860" as="targetPoint" />
          </mxGeometry>
        </mxCell>
        <mxCell id="TU0emrlXKV-2zq9Vhi45-34" value="poller.register(nioChannel)" style="text;html=1;resizable=0;autosize=1;align=center;verticalAlign=middle;points=[];fillColor=none;strokeColor=none;rounded=0;sketch=0;fontColor=#1D3557;" parent="ZsEFagKEa_Futw5ynS_p-1" vertex="1">
          <mxGeometry x="440" y="840" width="160" height="20" as="geometry" />
        </mxCell>
        <mxCell id="TU0emrlXKV-2zq9Vhi45-35" value="setSocketOptions(socketChannel)" style="text;html=1;resizable=0;autosize=1;align=center;verticalAlign=middle;points=[];fillColor=none;strokeColor=none;rounded=0;sketch=0;fontColor=#1D3557;" parent="ZsEFagKEa_Futw5ynS_p-1" vertex="1">
          <mxGeometry x="430" y="740" width="200" height="20" as="geometry" />
        </mxCell>
        <mxCell id="TU0emrlXKV-2zq9Vhi45-36" value="new NioSocketWrapper(nioChannel, this)" style="text;html=1;resizable=0;autosize=1;align=center;verticalAlign=middle;points=[];fillColor=none;strokeColor=none;rounded=0;sketch=0;fontColor=#1D3557;" parent="ZsEFagKEa_Futw5ynS_p-1" vertex="1">
          <mxGeometry x="660" y="870" width="240" height="20" as="geometry" />
        </mxCell>
        <mxCell id="TU0emrlXKV-2zq9Vhi45-37" value="&amp;nbsp; new PollerEvent(nioChannel, wrapper, OP_REGISTER)" style="text;html=1;resizable=0;autosize=1;align=center;verticalAlign=middle;points=[];fillColor=none;strokeColor=none;rounded=0;sketch=0;fontColor=#1D3557;" parent="ZsEFagKEa_Futw5ynS_p-1" vertex="1">
          <mxGeometry x="655" y="900" width="320" height="20" as="geometry" />
        </mxCell>
        <mxCell id="TU0emrlXKV-2zq9Vhi45-38" value="" style="endArrow=none;html=1;strokeColor=#457B9D;fillColor=#A8DADC;fontColor=#1D3557;startArrow=classic;startFill=1;endFill=0;" parent="ZsEFagKEa_Futw5ynS_p-1" edge="1">
          <mxGeometry width="50" height="50" relative="1" as="geometry">
            <mxPoint x="410" y="970" as="sourcePoint" />
            <mxPoint x="630" y="970" as="targetPoint" />
          </mxGeometry>
        </mxCell>
        <mxCell id="TU0emrlXKV-2zq9Vhi45-39" value="" style="endArrow=classic;html=1;strokeColor=#457B9D;fillColor=#A8DADC;fontColor=#1D3557;startArrow=none;startFill=0;endFill=1;" parent="ZsEFagKEa_Futw5ynS_p-1" edge="1">
          <mxGeometry width="50" height="50" relative="1" as="geometry">
            <mxPoint x="410" y="990" as="sourcePoint" />
            <mxPoint x="870" y="990" as="targetPoint" />
          </mxGeometry>
        </mxCell>
        <mxCell id="TU0emrlXKV-2zq9Vhi45-40" value="" style="endArrow=none;dashed=1;html=1;fillColor=#A8DADC;fontColor=#1D3557;strokeColor=#457B9D;" parent="ZsEFagKEa_Futw5ynS_p-1" edge="1">
          <mxGeometry width="50" height="50" relative="1" as="geometry">
            <mxPoint x="360" y="1010" as="sourcePoint" />
            <mxPoint x="920" y="1010" as="targetPoint" />
          </mxGeometry>
        </mxCell>
        <mxCell id="TU0emrlXKV-2zq9Vhi45-41" value="" style="shape=curlyBracket;whiteSpace=wrap;html=1;rounded=1;sketch=0;strokeColor=#457B9D;fillColor=#808080;fontColor=#1D3557;" parent="ZsEFagKEa_Futw5ynS_p-1" vertex="1">
          <mxGeometry x="370" y="700" width="20" height="300" as="geometry" />
        </mxCell>
        <mxCell id="TU0emrlXKV-2zq9Vhi45-42" value="acceptor.run" style="text;html=1;resizable=0;autosize=1;align=center;verticalAlign=middle;points=[];fillColor=none;strokeColor=none;rounded=0;sketch=0;fontColor=#1D3557;" parent="ZsEFagKEa_Futw5ynS_p-1" vertex="1">
          <mxGeometry x="290" y="840" width="80" height="20" as="geometry" />
        </mxCell>
        <mxCell id="TU0emrlXKV-2zq9Vhi45-43" value="遍历events, 执行 &lt;font color=&quot;#ff3333&quot;&gt;socketChannel.register(selector, OP_READ, wrapper);&lt;/font&gt;" style="text;html=1;resizable=0;autosize=1;align=center;verticalAlign=middle;points=[];fillColor=none;strokeColor=none;rounded=0;sketch=0;fontColor=#1D3557;" parent="ZsEFagKEa_Futw5ynS_p-1" vertex="1">
          <mxGeometry x="660" y="1040" width="400" height="20" as="geometry" />
        </mxCell>
        <mxCell id="TU0emrlXKV-2zq9Vhi45-44" value="获取准备好key迭代器 &lt;font color=&quot;#ff3333&quot;&gt;selector.selectedKeys()&lt;/font&gt;" style="text;html=1;resizable=0;autosize=1;align=center;verticalAlign=middle;points=[];fillColor=none;strokeColor=none;rounded=0;sketch=0;fontColor=#1D3557;" parent="ZsEFagKEa_Futw5ynS_p-1" vertex="1">
          <mxGeometry x="660" y="1070" width="260" height="20" as="geometry" />
        </mxCell>
        <mxCell id="TU0emrlXKV-2zq9Vhi45-45" value="" style="endArrow=classic;html=1;strokeColor=#457B9D;fillColor=#A8DADC;fontColor=#1D3557;rounded=0;entryX=1.1;entryY=0.625;entryDx=0;entryDy=0;entryPerimeter=0;" parent="ZsEFagKEa_Futw5ynS_p-1" edge="1">
          <mxGeometry width="50" height="50" relative="1" as="geometry">
            <mxPoint x="646" y="1070" as="sourcePoint" />
            <mxPoint x="646" y="1090" as="targetPoint" />
            <Array as="points">
              <mxPoint x="660" y="1070" />
              <mxPoint x="660" y="1090" />
            </Array>
          </mxGeometry>
        </mxCell>
        <mxCell id="TU0emrlXKV-2zq9Vhi45-46" value="遍历处理 key" style="text;html=1;resizable=0;autosize=1;align=center;verticalAlign=middle;points=[];fillColor=none;strokeColor=none;rounded=0;sketch=0;fontColor=#1D3557;" parent="ZsEFagKEa_Futw5ynS_p-1" vertex="1">
          <mxGeometry x="660" y="1100" width="90" height="20" as="geometry" />
        </mxCell>
        <mxCell id="TU0emrlXKV-2zq9Vhi45-47" value="" style="endArrow=classic;html=1;strokeColor=#457B9D;fillColor=#A8DADC;fontColor=#1D3557;rounded=0;entryX=1.1;entryY=0.625;entryDx=0;entryDy=0;entryPerimeter=0;" parent="ZsEFagKEa_Futw5ynS_p-1" edge="1">
          <mxGeometry width="50" height="50" relative="1" as="geometry">
            <mxPoint x="660" y="1130" as="sourcePoint" />
            <mxPoint x="660" y="1150" as="targetPoint" />
            <Array as="points">
              <mxPoint x="674" y="1130" />
              <mxPoint x="674" y="1150" />
            </Array>
          </mxGeometry>
        </mxCell>
        <mxCell id="TU0emrlXKV-2zq9Vhi45-48" value="wrapper = selectionKey.attachment()" style="text;html=1;resizable=0;autosize=1;align=center;verticalAlign=middle;points=[];fillColor=none;strokeColor=none;rounded=0;sketch=0;fontColor=#1D3557;" parent="ZsEFagKEa_Futw5ynS_p-1" vertex="1">
          <mxGeometry x="675" y="1130" width="210" height="20" as="geometry" />
        </mxCell>
        <mxCell id="TU0emrlXKV-2zq9Vhi45-49" value="SocketProcessor" style="shape=umlLifeline;perimeter=lifelinePerimeter;whiteSpace=wrap;html=1;container=1;collapsible=0;recursiveResize=0;outlineConnect=0;rounded=0;sketch=0;strokeColor=#457B9D;fillColor=#A8DADC;fontColor=#1D3557;size=20;" parent="ZsEFagKEa_Futw5ynS_p-1" vertex="1">
          <mxGeometry x="1070" y="540" width="100" height="700" as="geometry" />
        </mxCell>
        <mxCell id="TU0emrlXKV-2zq9Vhi45-50" value="" style="html=1;points=[];perimeter=orthogonalPerimeter;rounded=0;sketch=0;strokeColor=#457B9D;fillColor=#A8DADC;fontColor=#1D3557;" parent="TU0emrlXKV-2zq9Vhi45-49" vertex="1">
          <mxGeometry x="45" y="640" width="10" height="50" as="geometry" />
        </mxCell>
        <mxCell id="TU0emrlXKV-2zq9Vhi45-51" value="" style="endArrow=classic;html=1;strokeColor=#457B9D;fillColor=#A8DADC;fontColor=#1D3557;" parent="ZsEFagKEa_Futw5ynS_p-1" edge="1">
          <mxGeometry width="50" height="50" relative="1" as="geometry">
            <mxPoint x="660" y="1200" as="sourcePoint" />
            <mxPoint x="1110" y="1200" as="targetPoint" />
          </mxGeometry>
        </mxCell>
        <mxCell id="TU0emrlXKV-2zq9Vhi45-52" value="new SocketProcessor(socketWrapper, event)" style="text;html=1;resizable=0;autosize=1;align=center;verticalAlign=middle;points=[];fillColor=none;strokeColor=none;rounded=0;sketch=0;fontColor=#1D3557;" parent="ZsEFagKEa_Futw5ynS_p-1" vertex="1">
          <mxGeometry x="670" y="1158" width="260" height="20" as="geometry" />
        </mxCell>
        <mxCell id="TU0emrlXKV-2zq9Vhi45-53" value="" style="endArrow=classic;html=1;strokeColor=#457B9D;fillColor=#A8DADC;fontColor=#1D3557;rounded=0;entryX=1.1;entryY=0.625;entryDx=0;entryDy=0;entryPerimeter=0;" parent="ZsEFagKEa_Futw5ynS_p-1" edge="1">
          <mxGeometry width="50" height="50" relative="1" as="geometry">
            <mxPoint x="660" y="1160" as="sourcePoint" />
            <mxPoint x="660" y="1180" as="targetPoint" />
            <Array as="points">
              <mxPoint x="674" y="1160" />
              <mxPoint x="674" y="1180" />
            </Array>
          </mxGeometry>
        </mxCell>
        <mxCell id="TU0emrlXKV-2zq9Vhi45-54" value="&lt;font color=&quot;#ff3333&quot;&gt;放到线程池中异步执行 processor.run()&lt;/font&gt;" style="text;html=1;resizable=0;autosize=1;align=center;verticalAlign=middle;points=[];fillColor=none;strokeColor=none;rounded=0;sketch=0;fontColor=#1D3557;" parent="ZsEFagKEa_Futw5ynS_p-1" vertex="1">
          <mxGeometry x="885" y="1178" width="220" height="20" as="geometry" />
        </mxCell>
        <mxCell id="TU0emrlXKV-2zq9Vhi45-55" value="&lt;span&gt;Acceptor单个线程，主要将&lt;/span&gt;ServerSocketChannel（block设置为true）接收的socketChannel封装成event，平均放到各个Poller处理栈中" style="text;html=1;resizable=0;autosize=1;align=center;verticalAlign=middle;points=[];fillColor=none;strokeColor=none;rounded=0;sketch=0;fontColor=#1D3557;" parent="ZsEFagKEa_Futw5ynS_p-1" vertex="1">
          <mxGeometry x="320" y="480" width="730" height="20" as="geometry" />
        </mxCell>
        <mxCell id="TU0emrlXKV-2zq9Vhi45-56" value="Poller创建与CPU核数想当的个数，每个Poller相当于一个线程，初始化一个Selector，各自处理自己栈中的event，具体也是交给了线程池执行" style="text;html=1;resizable=0;autosize=1;align=center;verticalAlign=middle;points=[];fillColor=none;strokeColor=none;rounded=0;sketch=0;fontColor=#1D3557;" parent="ZsEFagKEa_Futw5ynS_p-1" vertex="1">
          <mxGeometry x="325" y="510" width="760" height="20" as="geometry" />
        </mxCell>
        <mxCell id="TU0emrlXKV-2zq9Vhi45-57" value="" style="shape=curlyBracket;whiteSpace=wrap;html=1;rounded=1;sketch=0;strokeColor=#457B9D;fillColor=#808080;fontColor=#1D3557;" parent="ZsEFagKEa_Futw5ynS_p-1" vertex="1">
          <mxGeometry x="610" y="1030" width="20" height="200" as="geometry" />
        </mxCell>
        <mxCell id="TU0emrlXKV-2zq9Vhi45-58" value="poller.run" style="text;html=1;resizable=0;autosize=1;align=center;verticalAlign=middle;points=[];fillColor=none;strokeColor=none;rounded=0;sketch=0;fontColor=#1D3557;" parent="ZsEFagKEa_Futw5ynS_p-1" vertex="1">
          <mxGeometry x="550" y="1120" width="60" height="20" as="geometry" />
        </mxCell>
      </root>
    </mxGraphModel>
  </diagram>
  <diagram id="7vjLsV_lq_FZ6msZCpX1" name="第 4 页">
    <mxGraphModel dx="984" dy="659" grid="0" gridSize="10" guides="1" tooltips="1" connect="1" arrows="1" fold="1" page="1" pageScale="1" pageWidth="1654" pageHeight="2336" math="0" shadow="0">
      <root>
        <mxCell id="mhHEhYwwRnrsahKuST0b-0" />
        <mxCell id="mhHEhYwwRnrsahKuST0b-1" parent="mhHEhYwwRnrsahKuST0b-0" />
        <mxCell id="mhHEhYwwRnrsahKuST0b-2" value="" style="endArrow=none;html=1;strokeColor=#457B9D;fillColor=#A8DADC;fontColor=#1D3557;startArrow=classic;startFill=1;endFill=0;" parent="mhHEhYwwRnrsahKuST0b-1" edge="1">
          <mxGeometry width="50" height="50" relative="1" as="geometry">
            <mxPoint x="587.75" y="760" as="sourcePoint" />
            <mxPoint x="722.25" y="760" as="targetPoint" />
          </mxGeometry>
        </mxCell>
        <mxCell id="mhHEhYwwRnrsahKuST0b-3" value="AbstractProcessor" style="shape=umlLifeline;perimeter=lifelinePerimeter;whiteSpace=wrap;html=1;container=1;collapsible=0;recursiveResize=0;outlineConnect=0;rounded=0;sketch=0;strokeColor=#457B9D;fillColor=#A8DADC;fontColor=#1D3557;size=20;" parent="mhHEhYwwRnrsahKuST0b-1" vertex="1">
          <mxGeometry x="810" y="480" width="110" height="510" as="geometry" />
        </mxCell>
        <mxCell id="mhHEhYwwRnrsahKuST0b-4" value="SocketProcessor" style="shape=umlLifeline;perimeter=lifelinePerimeter;whiteSpace=wrap;html=1;container=1;collapsible=0;recursiveResize=0;outlineConnect=0;rounded=0;sketch=0;strokeColor=#457B9D;fillColor=#A8DADC;fontColor=#1D3557;size=20;" parent="mhHEhYwwRnrsahKuST0b-1" vertex="1">
          <mxGeometry x="280" y="480" width="100" height="510" as="geometry" />
        </mxCell>
        <mxCell id="mhHEhYwwRnrsahKuST0b-5" value="" style="html=1;points=[];perimeter=orthogonalPerimeter;rounded=0;sketch=0;strokeColor=#457B9D;fillColor=#A8DADC;fontColor=#1D3557;" parent="mhHEhYwwRnrsahKuST0b-4" vertex="1">
          <mxGeometry x="45" y="40" width="10" height="450" as="geometry" />
        </mxCell>
        <mxCell id="mhHEhYwwRnrsahKuST0b-6" value="AbstractEndpoint" style="shape=umlLifeline;perimeter=lifelinePerimeter;whiteSpace=wrap;html=1;container=1;collapsible=0;recursiveResize=0;outlineConnect=0;rounded=0;sketch=0;strokeColor=#457B9D;fillColor=#A8DADC;fontColor=#1D3557;size=20;" parent="mhHEhYwwRnrsahKuST0b-1" vertex="1">
          <mxGeometry x="400" y="480" width="100" height="510" as="geometry" />
        </mxCell>
        <mxCell id="mhHEhYwwRnrsahKuST0b-7" value="" style="html=1;points=[];perimeter=orthogonalPerimeter;rounded=0;sketch=0;strokeColor=#457B9D;fillColor=#A8DADC;fontColor=#1D3557;" parent="mhHEhYwwRnrsahKuST0b-6" vertex="1">
          <mxGeometry x="45" y="50" width="10" height="30" as="geometry" />
        </mxCell>
        <mxCell id="mhHEhYwwRnrsahKuST0b-8" value="" style="endArrow=classic;html=1;strokeColor=#457B9D;fillColor=#A8DADC;fontColor=#1D3557;startArrow=none;startFill=0;endFill=1;" parent="mhHEhYwwRnrsahKuST0b-1" edge="1">
          <mxGeometry width="50" height="50" relative="1" as="geometry">
            <mxPoint x="340" y="540" as="sourcePoint" />
            <mxPoint x="440" y="540" as="targetPoint" />
          </mxGeometry>
        </mxCell>
        <mxCell id="mhHEhYwwRnrsahKuST0b-9" value="" style="endArrow=none;html=1;strokeColor=#457B9D;fillColor=#A8DADC;fontColor=#1D3557;startArrow=classic;startFill=1;endFill=0;" parent="mhHEhYwwRnrsahKuST0b-1" edge="1">
          <mxGeometry width="50" height="50" relative="1" as="geometry">
            <mxPoint x="340" y="550" as="sourcePoint" />
            <mxPoint x="440" y="550" as="targetPoint" />
          </mxGeometry>
        </mxCell>
        <mxCell id="mhHEhYwwRnrsahKuST0b-10" value="getHandler()" style="text;html=1;resizable=0;autosize=1;align=center;verticalAlign=middle;points=[];fillColor=none;strokeColor=none;rounded=0;" parent="mhHEhYwwRnrsahKuST0b-1" vertex="1">
          <mxGeometry x="350" y="520" width="80" height="20" as="geometry" />
        </mxCell>
        <mxCell id="mhHEhYwwRnrsahKuST0b-11" value="ConnectionHandler" style="shape=umlLifeline;perimeter=lifelinePerimeter;whiteSpace=wrap;html=1;container=1;collapsible=0;recursiveResize=0;outlineConnect=0;rounded=0;sketch=0;strokeColor=#457B9D;fillColor=#A8DADC;fontColor=#1D3557;size=20;" parent="mhHEhYwwRnrsahKuST0b-1" vertex="1">
          <mxGeometry x="520" y="480" width="110" height="510" as="geometry" />
        </mxCell>
        <mxCell id="mhHEhYwwRnrsahKuST0b-12" value="" style="html=1;points=[];perimeter=orthogonalPerimeter;rounded=0;sketch=0;strokeColor=#457B9D;fillColor=#A8DADC;fontColor=#1D3557;" parent="mhHEhYwwRnrsahKuST0b-11" vertex="1">
          <mxGeometry x="50" y="90" width="10" height="390" as="geometry" />
        </mxCell>
        <mxCell id="mhHEhYwwRnrsahKuST0b-13" value="process(wrapper, OPEN_READ)" style="text;html=1;resizable=0;autosize=1;align=center;verticalAlign=middle;points=[];fillColor=none;strokeColor=none;rounded=0;" parent="mhHEhYwwRnrsahKuST0b-1" vertex="1">
          <mxGeometry x="350" y="560" width="190" height="20" as="geometry" />
        </mxCell>
        <mxCell id="mhHEhYwwRnrsahKuST0b-14" value="" style="endArrow=classic;html=1;strokeColor=#457B9D;fillColor=#A8DADC;fontColor=#1D3557;startArrow=none;startFill=0;endFill=1;" parent="mhHEhYwwRnrsahKuST0b-1" edge="1">
          <mxGeometry width="50" height="50" relative="1" as="geometry">
            <mxPoint x="340" y="580" as="sourcePoint" />
            <mxPoint x="560" y="580" as="targetPoint" />
          </mxGeometry>
        </mxCell>
        <mxCell id="mhHEhYwwRnrsahKuST0b-15" value="AbstractHttp11Protocol" style="shape=umlLifeline;perimeter=lifelinePerimeter;whiteSpace=wrap;html=1;container=1;collapsible=0;recursiveResize=0;outlineConnect=0;rounded=0;sketch=0;strokeColor=#457B9D;fillColor=#A8DADC;fontColor=#1D3557;size=20;" parent="mhHEhYwwRnrsahKuST0b-1" vertex="1">
          <mxGeometry x="660" y="480" width="130" height="510" as="geometry" />
        </mxCell>
        <mxCell id="mhHEhYwwRnrsahKuST0b-16" value="" style="html=1;points=[];perimeter=orthogonalPerimeter;rounded=0;sketch=0;strokeColor=#457B9D;fillColor=#A8DADC;fontColor=#1D3557;" parent="mhHEhYwwRnrsahKuST0b-15" vertex="1">
          <mxGeometry x="60" y="140" width="10" height="150" as="geometry" />
        </mxCell>
        <mxCell id="mhHEhYwwRnrsahKuST0b-17" value="" style="endArrow=classic;html=1;strokeColor=#457B9D;fillColor=#A8DADC;fontColor=#1D3557;rounded=0;entryX=1.1;entryY=0.625;entryDx=0;entryDy=0;entryPerimeter=0;" parent="mhHEhYwwRnrsahKuST0b-1" edge="1">
          <mxGeometry width="50" height="50" relative="1" as="geometry">
            <mxPoint x="580" y="590" as="sourcePoint" />
            <mxPoint x="580" y="610" as="targetPoint" />
            <Array as="points">
              <mxPoint x="594" y="590" />
              <mxPoint x="594" y="610" />
            </Array>
          </mxGeometry>
        </mxCell>
        <mxCell id="mhHEhYwwRnrsahKuST0b-18" value="getProtocol()" style="text;html=1;resizable=0;autosize=1;align=center;verticalAlign=middle;points=[];fillColor=none;strokeColor=none;rounded=0;" parent="mhHEhYwwRnrsahKuST0b-1" vertex="1">
          <mxGeometry x="600" y="590" width="80" height="20" as="geometry" />
        </mxCell>
        <mxCell id="mhHEhYwwRnrsahKuST0b-19" value="createProcessor()" style="text;html=1;resizable=0;autosize=1;align=center;verticalAlign=middle;points=[];fillColor=none;strokeColor=none;rounded=0;" parent="mhHEhYwwRnrsahKuST0b-1" vertex="1">
          <mxGeometry x="600" y="610" width="110" height="20" as="geometry" />
        </mxCell>
        <mxCell id="mhHEhYwwRnrsahKuST0b-20" value="new Http11Processor(this, adapter)" style="text;html=1;resizable=0;autosize=1;align=center;verticalAlign=middle;points=[];fillColor=none;strokeColor=none;rounded=0;" parent="mhHEhYwwRnrsahKuST0b-1" vertex="1">
          <mxGeometry x="740" y="640" width="200" height="20" as="geometry" />
        </mxCell>
        <mxCell id="mhHEhYwwRnrsahKuST0b-21" value="" style="endArrow=classic;html=1;strokeColor=#457B9D;fillColor=#A8DADC;fontColor=#1D3557;startArrow=none;startFill=0;endFill=1;" parent="mhHEhYwwRnrsahKuST0b-1" edge="1">
          <mxGeometry width="50" height="50" relative="1" as="geometry">
            <mxPoint x="587.75" y="630" as="sourcePoint" />
            <mxPoint x="720" y="630" as="targetPoint" />
          </mxGeometry>
        </mxCell>
        <mxCell id="mhHEhYwwRnrsahKuST0b-22" value="" style="endArrow=classic;html=1;strokeColor=#457B9D;fillColor=#A8DADC;fontColor=#1D3557;startArrow=none;startFill=0;endFill=1;" parent="mhHEhYwwRnrsahKuST0b-1" edge="1">
          <mxGeometry width="50" height="50" relative="1" as="geometry">
            <mxPoint x="587.75" y="820" as="sourcePoint" />
            <mxPoint x="990" y="820" as="targetPoint" />
          </mxGeometry>
        </mxCell>
        <mxCell id="mhHEhYwwRnrsahKuST0b-23" value="process(wrapper, OPEN_READ)" style="text;html=1;resizable=0;autosize=1;align=center;verticalAlign=middle;points=[];fillColor=none;strokeColor=none;rounded=0;" parent="mhHEhYwwRnrsahKuST0b-1" vertex="1">
          <mxGeometry x="600" y="800" width="190" height="20" as="geometry" />
        </mxCell>
        <mxCell id="mhHEhYwwRnrsahKuST0b-24" value="Http11Processor" style="shape=umlLifeline;perimeter=lifelinePerimeter;whiteSpace=wrap;html=1;container=1;collapsible=0;recursiveResize=0;outlineConnect=0;rounded=0;sketch=0;strokeColor=#457B9D;fillColor=#A8DADC;fontColor=#1D3557;size=20;" parent="mhHEhYwwRnrsahKuST0b-1" vertex="1">
          <mxGeometry x="1090" y="480" width="110" height="510" as="geometry" />
        </mxCell>
        <mxCell id="mhHEhYwwRnrsahKuST0b-25" value="" style="html=1;points=[];perimeter=orthogonalPerimeter;rounded=0;sketch=0;strokeColor=#457B9D;fillColor=#A8DADC;fontColor=#1D3557;" parent="mhHEhYwwRnrsahKuST0b-24" vertex="1">
          <mxGeometry x="50" y="340" width="10" height="120" as="geometry" />
        </mxCell>
        <mxCell id="mhHEhYwwRnrsahKuST0b-26" value="" style="endArrow=classic;html=1;strokeColor=#457B9D;fillColor=#A8DADC;fontColor=#1D3557;startArrow=none;startFill=0;endFill=1;" parent="mhHEhYwwRnrsahKuST0b-1" edge="1">
          <mxGeometry width="50" height="50" relative="1" as="geometry">
            <mxPoint x="1010" y="830" as="sourcePoint" />
            <mxPoint x="1135" y="830" as="targetPoint" />
          </mxGeometry>
        </mxCell>
        <mxCell id="mhHEhYwwRnrsahKuST0b-27" value="service(wrapper)" style="text;html=1;resizable=0;autosize=1;align=center;verticalAlign=middle;points=[];fillColor=none;strokeColor=none;rounded=0;" parent="mhHEhYwwRnrsahKuST0b-1" vertex="1">
          <mxGeometry x="1010" y="810" width="100" height="20" as="geometry" />
        </mxCell>
        <mxCell id="mhHEhYwwRnrsahKuST0b-28" value="" style="endArrow=classic;html=1;strokeColor=#457B9D;fillColor=#A8DADC;fontColor=#1D3557;rounded=0;entryX=1.1;entryY=0.625;entryDx=0;entryDy=0;entryPerimeter=0;" parent="mhHEhYwwRnrsahKuST0b-1" edge="1">
          <mxGeometry width="50" height="50" relative="1" as="geometry">
            <mxPoint x="1150" y="840" as="sourcePoint" />
            <mxPoint x="1150" y="860" as="targetPoint" />
            <Array as="points">
              <mxPoint x="1164" y="840" />
              <mxPoint x="1164" y="860" />
            </Array>
          </mxGeometry>
        </mxCell>
        <mxCell id="mhHEhYwwRnrsahKuST0b-29" value="getAdapter()" style="text;html=1;resizable=0;autosize=1;align=center;verticalAlign=middle;points=[];fillColor=none;strokeColor=none;rounded=0;" parent="mhHEhYwwRnrsahKuST0b-1" vertex="1">
          <mxGeometry x="1160" y="840" width="80" height="20" as="geometry" />
        </mxCell>
        <mxCell id="mhHEhYwwRnrsahKuST0b-30" value="CoyoteAdapter" style="shape=umlLifeline;perimeter=lifelinePerimeter;whiteSpace=wrap;html=1;container=1;collapsible=0;recursiveResize=0;outlineConnect=0;rounded=0;sketch=0;strokeColor=#457B9D;fillColor=#A8DADC;fontColor=#1D3557;size=20;" parent="mhHEhYwwRnrsahKuST0b-1" vertex="1">
          <mxGeometry x="1280" y="480" width="90" height="510" as="geometry" />
        </mxCell>
        <mxCell id="mhHEhYwwRnrsahKuST0b-31" value="" style="html=1;points=[];perimeter=orthogonalPerimeter;rounded=0;sketch=0;strokeColor=#457B9D;fillColor=#A8DADC;fontColor=#1D3557;" parent="mhHEhYwwRnrsahKuST0b-30" vertex="1">
          <mxGeometry x="40" y="390" width="10" height="60" as="geometry" />
        </mxCell>
        <mxCell id="mhHEhYwwRnrsahKuST0b-32" value="" style="endArrow=classic;html=1;strokeColor=#457B9D;fillColor=#A8DADC;fontColor=#1D3557;rounded=0;entryX=1.1;entryY=0.625;entryDx=0;entryDy=0;entryPerimeter=0;" parent="mhHEhYwwRnrsahKuST0b-1" edge="1">
          <mxGeometry width="50" height="50" relative="1" as="geometry">
            <mxPoint x="871" y="680" as="sourcePoint" />
            <mxPoint x="871" y="700" as="targetPoint" />
            <Array as="points">
              <mxPoint x="885" y="680" />
              <mxPoint x="885" y="700" />
            </Array>
          </mxGeometry>
        </mxCell>
        <mxCell id="mhHEhYwwRnrsahKuST0b-33" value="" style="endArrow=classic;html=1;strokeColor=#457B9D;fillColor=#A8DADC;fontColor=#1D3557;rounded=0;entryX=1.1;entryY=0.625;entryDx=0;entryDy=0;entryPerimeter=0;" parent="mhHEhYwwRnrsahKuST0b-1" edge="1">
          <mxGeometry width="50" height="50" relative="1" as="geometry">
            <mxPoint x="871" y="710" as="sourcePoint" />
            <mxPoint x="871" y="730" as="targetPoint" />
            <Array as="points">
              <mxPoint x="885" y="710" />
              <mxPoint x="885" y="730" />
            </Array>
          </mxGeometry>
        </mxCell>
        <mxCell id="mhHEhYwwRnrsahKuST0b-34" value="new Request()" style="text;html=1;resizable=0;autosize=1;align=center;verticalAlign=middle;points=[];fillColor=none;strokeColor=none;rounded=0;" parent="mhHEhYwwRnrsahKuST0b-1" vertex="1">
          <mxGeometry x="890" y="680" width="90" height="20" as="geometry" />
        </mxCell>
        <mxCell id="mhHEhYwwRnrsahKuST0b-35" value="" style="html=1;points=[];perimeter=orthogonalPerimeter;rounded=0;sketch=0;strokeColor=#457B9D;fillColor=#A8DADC;fontColor=#1D3557;" parent="mhHEhYwwRnrsahKuST0b-1" vertex="1">
          <mxGeometry x="860" y="660" width="10" height="90" as="geometry" />
        </mxCell>
        <mxCell id="mhHEhYwwRnrsahKuST0b-36" value="new Response()" style="text;html=1;resizable=0;autosize=1;align=center;verticalAlign=middle;points=[];fillColor=none;strokeColor=none;rounded=0;" parent="mhHEhYwwRnrsahKuST0b-1" vertex="1">
          <mxGeometry x="890" y="710" width="100" height="20" as="geometry" />
        </mxCell>
        <mxCell id="mhHEhYwwRnrsahKuST0b-37" value="" style="endArrow=classic;html=1;strokeColor=#457B9D;fillColor=#A8DADC;fontColor=#1D3557;startArrow=none;startFill=0;endFill=1;" parent="mhHEhYwwRnrsahKuST0b-1" edge="1">
          <mxGeometry width="50" height="50" relative="1" as="geometry">
            <mxPoint x="745" y="670" as="sourcePoint" />
            <mxPoint x="860" y="670" as="targetPoint" />
          </mxGeometry>
        </mxCell>
        <mxCell id="mhHEhYwwRnrsahKuST0b-38" value="" style="endArrow=classic;html=1;strokeColor=#457B9D;fillColor=#A8DADC;fontColor=#1D3557;rounded=0;entryX=1.1;entryY=0.625;entryDx=0;entryDy=0;entryPerimeter=0;" parent="mhHEhYwwRnrsahKuST0b-1" source="mhHEhYwwRnrsahKuST0b-16" edge="1">
          <mxGeometry width="50" height="50" relative="1" as="geometry">
            <mxPoint x="730" y="730" as="sourcePoint" />
            <mxPoint x="730" y="750" as="targetPoint" />
            <Array as="points">
              <mxPoint x="744" y="640" />
              <mxPoint x="744" y="750" />
            </Array>
          </mxGeometry>
        </mxCell>
        <mxCell id="mhHEhYwwRnrsahKuST0b-39" value="" style="endArrow=none;html=1;strokeColor=#457B9D;fillColor=#A8DADC;fontColor=#1D3557;startArrow=classic;startFill=1;endFill=0;" parent="mhHEhYwwRnrsahKuST0b-1" edge="1">
          <mxGeometry width="50" height="50" relative="1" as="geometry">
            <mxPoint x="745" y="740" as="sourcePoint" />
            <mxPoint x="860" y="740" as="targetPoint" />
          </mxGeometry>
        </mxCell>
        <mxCell id="mhHEhYwwRnrsahKuST0b-40" value="AbstractProcessorLight" style="shape=umlLifeline;perimeter=lifelinePerimeter;whiteSpace=wrap;html=1;container=1;collapsible=0;recursiveResize=0;outlineConnect=0;rounded=0;sketch=0;strokeColor=#457B9D;fillColor=#A8DADC;fontColor=#1D3557;size=20;" parent="mhHEhYwwRnrsahKuST0b-1" vertex="1">
          <mxGeometry x="940" y="480" width="130" height="510" as="geometry" />
        </mxCell>
        <mxCell id="mhHEhYwwRnrsahKuST0b-41" value="" style="html=1;points=[];perimeter=orthogonalPerimeter;rounded=0;sketch=0;strokeColor=#457B9D;fillColor=#A8DADC;fontColor=#1D3557;" parent="mhHEhYwwRnrsahKuST0b-1" vertex="1">
          <mxGeometry x="1000" y="810" width="10" height="140" as="geometry" />
        </mxCell>
        <mxCell id="mhHEhYwwRnrsahKuST0b-42" value="service(request, response)" style="text;html=1;resizable=0;autosize=1;align=center;verticalAlign=middle;points=[];fillColor=none;strokeColor=none;rounded=0;" parent="mhHEhYwwRnrsahKuST0b-1" vertex="1">
          <mxGeometry x="1160" y="860" width="160" height="20" as="geometry" />
        </mxCell>
        <mxCell id="mhHEhYwwRnrsahKuST0b-43" value="" style="endArrow=classic;html=1;strokeColor=#457B9D;fillColor=#A8DADC;fontColor=#1D3557;startArrow=none;startFill=0;endFill=1;" parent="mhHEhYwwRnrsahKuST0b-1" edge="1">
          <mxGeometry width="50" height="50" relative="1" as="geometry">
            <mxPoint x="1150" y="880" as="sourcePoint" />
            <mxPoint x="1320" y="880" as="targetPoint" />
          </mxGeometry>
        </mxCell>
        <mxCell id="mhHEhYwwRnrsahKuST0b-44" value="获取容器 invoke(request, response)" style="text;html=1;resizable=0;autosize=1;align=center;verticalAlign=middle;points=[];fillColor=none;strokeColor=none;rounded=0;" parent="mhHEhYwwRnrsahKuST0b-1" vertex="1">
          <mxGeometry x="1323" y="893" width="210" height="20" as="geometry" />
        </mxCell>
        <mxCell id="mhHEhYwwRnrsahKuST0b-45" value="" style="endArrow=none;html=1;strokeColor=#457B9D;fillColor=#A8DADC;fontColor=#1D3557;startArrow=classic;startFill=1;endFill=0;" parent="mhHEhYwwRnrsahKuST0b-1" edge="1">
          <mxGeometry width="50" height="50" relative="1" as="geometry">
            <mxPoint x="1150" y="920" as="sourcePoint" />
            <mxPoint x="1320" y="920" as="targetPoint" />
          </mxGeometry>
        </mxCell>
        <mxCell id="mhHEhYwwRnrsahKuST0b-46" value="" style="endArrow=none;html=1;strokeColor=#457B9D;fillColor=#A8DADC;fontColor=#1D3557;startArrow=classic;startFill=1;endFill=0;" parent="mhHEhYwwRnrsahKuST0b-1" edge="1">
          <mxGeometry width="50" height="50" relative="1" as="geometry">
            <mxPoint x="1010" y="930" as="sourcePoint" />
            <mxPoint x="1135" y="930" as="targetPoint" />
          </mxGeometry>
        </mxCell>
        <mxCell id="mhHEhYwwRnrsahKuST0b-47" value="" style="endArrow=none;html=1;strokeColor=#457B9D;fillColor=#A8DADC;fontColor=#1D3557;startArrow=classic;startFill=1;endFill=0;" parent="mhHEhYwwRnrsahKuST0b-1" edge="1">
          <mxGeometry width="50" height="50" relative="1" as="geometry">
            <mxPoint x="587.75" y="940" as="sourcePoint" />
            <mxPoint x="990" y="940" as="targetPoint" />
          </mxGeometry>
        </mxCell>
        <mxCell id="mhHEhYwwRnrsahKuST0b-48" value="" style="endArrow=none;html=1;strokeColor=#457B9D;fillColor=#A8DADC;fontColor=#1D3557;startArrow=classic;startFill=1;endFill=0;" parent="mhHEhYwwRnrsahKuST0b-1" edge="1">
          <mxGeometry width="50" height="50" relative="1" as="geometry">
            <mxPoint x="340" y="950" as="sourcePoint" />
            <mxPoint x="560" y="950" as="targetPoint" />
          </mxGeometry>
        </mxCell>
      </root>
    </mxGraphModel>
  </diagram>
</mxfile>
